<?xml version="1.0" encoding="utf-8"?>
<!-- Generator: Adobe Illustrator 15.0.2, SVG Export Plug-In . SVG Version: 6.00 Build 0)  -->
<!DOCTYPE svg PUBLIC "-//W3C//DTD SVG 1.1//EN" "http://www.w3.org/Graphics/SVG/1.1/DTD/svg11.dtd">
<svg version="1.1" id="Ebene_1" xmlns="http://www.w3.org/2000/svg" xmlns:xlink="http://www.w3.org/1999/xlink" x="0px" y="0px"
	 width="155.5px" height="112.5px" viewBox="0 0 155.5 112.5" enable-background="new 0 0 155.5 112.5" xml:space="preserve">
<g>
	<path d="M4.729,27.134l1.538-0.211c0.041,0.984,0.226,1.658,0.554,2.021s0.782,0.545,1.362,0.545c0.428,0,0.797-0.098,1.107-0.294
		s0.524-0.463,0.642-0.8s0.176-0.875,0.176-1.613v-8.877h1.705v8.78c0,1.078-0.13,1.913-0.391,2.505s-0.674,1.043-1.239,1.354
		S8.953,31.01,8.191,31.01c-1.131,0-1.997-0.325-2.597-0.976S4.705,28.417,4.729,27.134z"/>
</g>
<g>
	<path d="M3.979,92.96V80.075h1.705v6.39l6.398-6.39h2.312l-5.405,5.221l5.643,7.664h-2.25l-4.588-6.521l-2.109,2.057v4.465H3.979z"
		/>
</g>
<g>
	<path d="M13.242,55.732l1.705,0.431c-0.357,1.4-1,2.468-1.929,3.204c-0.929,0.734-2.064,1.103-3.406,1.103
		c-1.389,0-2.518-0.282-3.388-0.849c-0.87-0.564-1.532-1.384-1.986-2.456s-0.681-2.224-0.681-3.454c0-1.342,0.256-2.512,0.769-3.511
		s1.242-1.758,2.188-2.276s1.988-0.778,3.125-0.778c1.289,0,2.373,0.328,3.252,0.984s1.491,1.579,1.837,2.769l-1.679,0.396
		c-0.299-0.938-0.732-1.62-1.301-2.048s-1.283-0.642-2.145-0.642c-0.99,0-1.818,0.237-2.483,0.712s-1.132,1.112-1.402,1.912
		s-0.404,1.625-0.404,2.474c0,1.096,0.16,2.052,0.479,2.87S6.609,58,7.283,58.404s1.403,0.606,2.188,0.606
		c0.955,0,1.764-0.275,2.426-0.826S13.008,56.816,13.242,55.732z"/>
</g>
<g>
	<path d="M60.416,95h-1.582V84.919c-0.381,0.363-0.88,0.727-1.499,1.09s-1.173,0.636-1.666,0.817v-1.529
		c0.885-0.416,1.658-0.92,2.32-1.512s1.131-1.166,1.406-1.723h1.02V95z"/>
	<path d="M65.039,95V82.115h1.705v6.39l6.398-6.39h2.312l-5.405,5.221L75.691,95h-2.25l-4.588-6.521l-2.109,2.057V95H65.039z"/>
</g>
<g>
	<path d="M76.292,55.442l1.705,0.431c-0.357,1.4-1,2.469-1.929,3.203c-0.929,0.736-2.064,1.104-3.406,1.104
		c-1.389,0-2.518-0.283-3.388-0.848c-0.87-0.566-1.532-1.385-1.986-2.457s-0.681-2.224-0.681-3.454c0-1.342,0.256-2.512,0.769-3.511
		s1.242-1.758,2.188-2.276s1.988-0.778,3.125-0.778c1.289,0,2.373,0.328,3.252,0.984s1.491,1.579,1.837,2.769l-1.679,0.396
		c-0.299-0.938-0.732-1.62-1.301-2.048s-1.283-0.642-2.145-0.642c-0.99,0-1.818,0.237-2.483,0.712s-1.132,1.112-1.402,1.912
		s-0.404,1.625-0.404,2.474c0,1.096,0.16,2.052,0.479,2.87s0.816,1.428,1.49,1.833s1.403,0.606,2.188,0.606
		c0.955,0,1.764-0.275,2.426-0.826S76.058,56.526,76.292,55.442z"/>
	<path d="M85.415,59.96h-1.582V49.879c-0.381,0.363-0.88,0.727-1.499,1.09c-0.617,0.363-1.173,0.636-1.665,0.817v-1.529
		c0.885-0.416,1.658-0.92,2.32-1.512s1.131-1.166,1.406-1.723h1.02V59.96z"/>
</g>
<g>
	<path d="M60.416,32.96h-1.582V22.879c-0.381,0.363-0.88,0.727-1.499,1.09s-1.173,0.636-1.666,0.817v-1.529
		c0.885-0.416,1.658-0.92,2.32-1.512s1.131-1.166,1.406-1.723h1.02V32.96z"/>
	<path d="M64.239,29.304l1.538-0.211c0.041,0.984,0.226,1.658,0.554,2.021s0.782,0.545,1.362,0.545c0.428,0,0.797-0.098,1.107-0.294
		s0.524-0.463,0.642-0.8s0.176-0.875,0.176-1.613v-8.877h1.705v8.78c0,1.078-0.13,1.913-0.391,2.505s-0.674,1.043-1.239,1.354
		s-1.229,0.466-1.991,0.466c-1.131,0-1.997-0.325-2.597-0.976S64.216,30.587,64.239,29.304z"/>
</g>
<g>
	<path d="M148.863,31.58c0.791,0.545,1.521,0.943,2.188,1.195l-0.501,1.187c-0.926-0.334-1.849-0.861-2.769-1.582
		c-0.955,0.533-2.01,0.8-3.164,0.8c-1.166,0-2.224-0.281-3.173-0.844s-1.68-1.354-2.193-2.373c-0.512-1.02-0.769-2.168-0.769-3.445
		c0-1.271,0.258-2.429,0.773-3.472s1.249-1.837,2.202-2.382c0.951-0.545,2.017-0.817,3.194-0.817c1.189,0,2.262,0.283,3.217,0.848
		s1.683,1.356,2.185,2.373c0.5,1.017,0.751,2.164,0.751,3.441c0,1.061-0.161,2.014-0.483,2.861S149.514,30.953,148.863,31.58z
		 M145.11,29.4c0.984,0.275,1.796,0.686,2.435,1.23c1.002-0.914,1.503-2.288,1.503-4.122c0-1.043-0.177-1.954-0.532-2.733
		c-0.354-0.779-0.873-1.384-1.555-1.815c-0.684-0.431-1.449-0.646-2.299-0.646c-1.271,0-2.326,0.435-3.164,1.305
		s-1.257,2.169-1.257,3.898c0,1.676,0.415,2.962,1.243,3.858c0.83,0.896,1.889,1.345,3.178,1.345c0.609,0,1.184-0.114,1.723-0.343
		c-0.533-0.346-1.096-0.592-1.688-0.738L145.11,29.4z"/>
</g>
<g>
	<path d="M149.903,94.7c0.791,0.545,1.521,0.943,2.188,1.195l-0.501,1.187c-0.926-0.334-1.849-0.861-2.769-1.582
		c-0.955,0.533-2.01,0.8-3.164,0.8c-1.166,0-2.224-0.281-3.173-0.844s-1.681-1.354-2.192-2.373c-0.514-1.02-0.77-2.168-0.77-3.445
		c0-1.271,0.258-2.429,0.773-3.472s1.25-1.837,2.201-2.382c0.953-0.545,2.018-0.817,3.195-0.817c1.189,0,2.262,0.283,3.217,0.848
		c0.955,0.566,1.684,1.357,2.184,2.373c0.502,1.018,0.752,2.164,0.752,3.441c0,1.061-0.161,2.014-0.483,2.861
		C151.04,93.336,150.554,94.073,149.903,94.7z M146.15,92.521c0.984,0.275,1.796,0.686,2.435,1.23
		c1.002-0.914,1.503-2.288,1.503-4.122c0-1.043-0.178-1.954-0.531-2.733c-0.355-0.779-0.873-1.384-1.557-1.815
		c-0.682-0.43-1.448-0.646-2.298-0.646c-1.271,0-2.326,0.435-3.164,1.306c-0.838,0.869-1.257,2.169-1.257,3.897
		c0,1.676,0.414,2.962,1.244,3.858c0.828,0.896,1.888,1.345,3.177,1.345c0.609,0,1.184-0.114,1.723-0.343
		c-0.533-0.346-1.096-0.592-1.688-0.738L146.15,92.521z"/>
</g>
<polyline fill="none" stroke="#000000" stroke-width="2.126" stroke-miterlimit="10" points="46.71,48.375 59.063,55.063 
	46.71,61.75 "/>
<circle fill="none" stroke="#000000" stroke-width="1.4173" stroke-miterlimit="10" cx="112.29" cy="90.021" r="3.01"/>
<rect x="46.71" y="8" fill="none" stroke="#000000" stroke-width="2.126" stroke-miterlimit="10" width="62.04" height="98.04"/>
<line fill="none" stroke="#000000" stroke-width="2.126" stroke-miterlimit="10" x1="21.23" y1="26.04" x2="45.71" y2="26.04"/>
<line fill="none" stroke="#000000" stroke-width="2.126" stroke-miterlimit="10" x1="109.23" y1="27" x2="133.71" y2="27"/>
<line fill="none" stroke="#000000" stroke-width="2.126" stroke-miterlimit="10" x1="21.99" y1="88.04" x2="46.47" y2="88.04"/>
<line fill="none" stroke="#000000" stroke-width="2.126" stroke-miterlimit="10" x1="21.99" y1="54.98" x2="46.47" y2="54.98"/>
<line fill="none" stroke="#000000" stroke-width="2.126" stroke-miterlimit="10" x1="114.98" y1="90.02" x2="133.83" y2="90.02"/>
<line fill="none" stroke="#000000" stroke-width="2.126" stroke-miterlimit="10" x1="140.25" y1="80" x2="151" y2="80"/>
</svg>
