<?xml version="1.0" encoding="UTF-8" standalone="no"?>
<!DOCTYPE svg PUBLIC "-//W3C//DTD SVG 1.0//EN" "http://www.w3.org/TR/2001/PR-SVG-20010719/DTD/svg10.dtd">
<svg width="8cm" height="15cm" viewBox="149 89 142 282" xmlns="http://www.w3.org/2000/svg" xmlns:xlink="http://www.w3.org/1999/xlink">
  <g>
    <rect style="fill: #ffffff" x="180" y="90" width="80" height="280"/>
    <rect style="fill: none; fill-opacity:0; stroke-width: 2; stroke: #000000" x="180" y="90" width="80" height="280"/>
  </g>
  <line style="fill: none; fill-opacity:0; stroke-width: 2; stroke: #000000" x1="150" y1="310" x2="180" y2="310"/>
  <text style="fill: #000000;text-anchor:start;font-size:12.8;font-family:sanserif;font-style:normal;font-weight:normal" x="183.5" y="134">
    <tspan x="183.5" y="134">0</tspan>
  </text>
  <text style="fill: #000000;text-anchor:start;font-size:12.8;font-family:sanserif;font-style:normal;font-weight:normal" x="183.5" y="154">
    <tspan x="183.5" y="154">1</tspan>
  </text>
  <text style="fill: #000000;text-anchor:start;font-size:12.8;font-family:sanserif;font-style:normal;font-weight:normal" x="183.5" y="224">
    <tspan x="183.5" y="224">0</tspan>
  </text>
  <text style="fill: #000000;text-anchor:start;font-size:12.8;font-family:sanserif;font-style:normal;font-weight:normal" x="183.5" y="244">
    <tspan x="183.5" y="244">1</tspan>
  </text>
  <line style="fill: none; fill-opacity:0; stroke-width: 2; stroke: #000000" x1="150" y1="220" x2="180" y2="220"/>
  <line style="fill: none; fill-opacity:0; stroke-width: 2; stroke: #000000" x1="150" y1="130" x2="180" y2="130"/>
  <line style="fill: none; fill-opacity:0; stroke-width: 2; stroke: #000000" x1="150" y1="150" x2="180" y2="150"/>
  <line style="fill: none; fill-opacity:0; stroke-width: 2; stroke: #000000" x1="150" y1="240" x2="180" y2="240"/>
  <text style="fill: #000000;text-anchor:middle;font-size:12.8;font-family:sanserif;font-style:normal;font-weight:normal" x="220" y="110">
    <tspan x="220" y="110">COMP</tspan>
  </text>
  <text style="fill: #000000;text-anchor:start;font-size:12.8;font-family:sanserif;font-style:normal;font-weight:normal" x="183.5" y="315">
    <tspan x="183.5" y="315">&lt;</tspan>
  </text>
  <text style="fill: #000000;text-anchor:start;font-size:12.8;font-family:sanserif;font-style:normal;font-weight:normal" x="206.5" y="164.5">
    <tspan x="206.5" y="164.5">P</tspan>
  </text>
  <text style="fill: #000000;text-anchor:start;font-size:12.8;font-family:sanserif;font-style:normal;font-weight:normal" x="206.5" y="254.5">
    <tspan x="206.5" y="254.5">Q</tspan>
  </text>
  <text style="fill: #000000;text-anchor:start;font-size:12.8;font-family:sanserif;font-style:normal;font-weight:normal" x="183.5" y="174">
    <tspan x="183.5" y="174">2</tspan>
  </text>
  <text style="fill: #000000;text-anchor:start;font-size:12.8;font-family:sanserif;font-style:normal;font-weight:normal" x="183.5" y="194">
    <tspan x="183.5" y="194">3</tspan>
  </text>
  <line style="fill: none; fill-opacity:0; stroke-width: 2; stroke: #000000" x1="150" y1="170" x2="180" y2="170"/>
  <line style="fill: none; fill-opacity:0; stroke-width: 2; stroke: #000000" x1="150" y1="190" x2="180" y2="190"/>
  <text style="fill: #000000;text-anchor:start;font-size:12.8;font-family:sanserif;font-style:normal;font-weight:normal" x="183.5" y="264">
    <tspan x="183.5" y="264">2</tspan>
  </text>
  <text style="fill: #000000;text-anchor:start;font-size:12.8;font-family:sanserif;font-style:normal;font-weight:normal" x="183.5" y="284">
    <tspan x="183.5" y="284">3</tspan>
  </text>
  <line style="fill: none; fill-opacity:0; stroke-width: 2; stroke: #000000" x1="150" y1="260" x2="180" y2="260"/>
  <line style="fill: none; fill-opacity:0; stroke-width: 2; stroke: #000000" x1="150" y1="280" x2="180" y2="280"/>
  <line style="fill: none; fill-opacity:0; stroke-width: 2; stroke: #000000" x1="260" y1="230" x2="290" y2="230"/>
  <line style="fill: none; fill-opacity:0; stroke-width: 2; stroke: #000000" x1="150" y1="350" x2="180" y2="350"/>
  <text style="fill: #000000;text-anchor:start;font-size:12.8;font-family:sanserif;font-style:normal;font-weight:normal" x="183.5" y="355">
    <tspan x="183.5" y="355">&gt;</tspan>
  </text>
  <line style="fill: none; fill-opacity:0; stroke-width: 2; stroke: #000000" x1="150" y1="330" x2="180" y2="330"/>
  <text style="fill: #000000;text-anchor:start;font-size:12.8;font-family:sanserif;font-style:normal;font-weight:normal" x="183.5" y="335">
    <tspan x="183.5" y="335">=</tspan>
  </text>
  <line style="fill: none; fill-opacity:0; stroke-width: 2; stroke: #000000" x1="260" y1="190" x2="290" y2="190"/>
  <text style="fill: #000000;text-anchor:start;font-size:12.8;font-family:sanserif;font-style:normal;font-weight:normal" x="228.5" y="233">
    <tspan x="228.5" y="233">P=Q</tspan>
  </text>
  <text style="fill: #000000;text-anchor:start;font-size:12.8;font-family:sanserif;font-style:normal;font-weight:normal" x="228.5" y="193">
    <tspan x="228.5" y="193">P&gt;Q</tspan>
  </text>
  <line style="fill: none; fill-opacity:0; stroke-width: 2; stroke: #000000" x1="260" y1="270" x2="290" y2="270"/>
  <text style="fill: #000000;text-anchor:start;font-size:12.8;font-family:sanserif;font-style:normal;font-weight:normal" x="228.5" y="273">
    <tspan x="228.5" y="273">P&lt;Q</tspan>
  </text>
  <polyline style="fill: none; fill-opacity:0; stroke-width: 1.6; stroke: #000000" points="194.5,125 198.5,134.75 198.5,154.75 202,160 198.5,164.75 198.5,184.75 194.5,195 "/>
  <polyline style="fill: none; fill-opacity:0; stroke-width: 1.6; stroke: #000000" points="194.5,215 198.5,224.75 198.5,244.75 202,250 198.5,254.75 198.5,274.75 194.5,285 "/>
</svg>
