<?xml version="1.0" encoding="utf-8"?>
<!-- Generator: Adobe Illustrator 15.0.2, SVG Export Plug-In . SVG Version: 6.00 Build 0)  -->
<!DOCTYPE svg PUBLIC "-//W3C//DTD SVG 1.1//EN" "http://www.w3.org/Graphics/SVG/1.1/DTD/svg11.dtd">
<svg version="1.1" id="Ebene_1" xmlns="http://www.w3.org/2000/svg" xmlns:xlink="http://www.w3.org/1999/xlink" x="0px" y="0px"
	 width="624px" height="652px" viewBox="0 0 624 652" enable-background="new 0 0 624 652" xml:space="preserve">
<g>
	<defs>
		<rect id="SVGID_1_" width="623.5" height="652"/>
	</defs>
	<clipPath id="SVGID_2_">
		<use xlink:href="#SVGID_1_"  overflow="visible"/>
	</clipPath>
	<rect clip-path="url(#SVGID_2_)" fill-rule="evenodd" clip-rule="evenodd" fill="#FFFFFF" width="623.6" height="651.9"/>
	<path clip-path="url(#SVGID_2_)" fill-rule="evenodd" clip-rule="evenodd" fill="#FFFFFF" d="M106.7,124.3
		c-7.7,0-15.4,7.7-15.4,15.4v381.5c0,7.7,7.7,15.399,15.4,15.399h61.6c7.8,0,15.5-7.699,15.5-15.399V139.7c0-7.7-7.7-15.4-15.5-15.4
		H106.7z"/>
	
		<path clip-path="url(#SVGID_2_)" fill="none" stroke="#FF6633" stroke-width="2.83" stroke-linejoin="round" stroke-miterlimit="10" d="
		M106.7,124.3c-7.7,0-15.4,7.7-15.4,15.4v381.5c0,7.7,7.7,15.399,15.4,15.399h61.6c7.8,0,15.5-7.699,15.5-15.399V139.7
		c0-7.7-7.7-15.4-15.5-15.4H106.7z"/>
	
		<path clip-path="url(#SVGID_2_)" fill="none" stroke="#FF6633" stroke-width="2.83" stroke-linejoin="round" stroke-miterlimit="10" d="
		M91.3,124.3L91.3,124.3z"/>
	
		<path clip-path="url(#SVGID_2_)" fill="none" stroke="#FF6633" stroke-width="2.83" stroke-linejoin="round" stroke-miterlimit="10" d="
		M183.8,536.6L183.8,536.6z"/>
	
		<line clip-path="url(#SVGID_2_)" fill="none" stroke="#FF6633" stroke-width="2.8" stroke-miterlimit="10" x1="91.3" y1="255.3" x2="96.9" y2="255.3"/>
	
		<line clip-path="url(#SVGID_2_)" fill="none" stroke="#FF6633" stroke-width="2.8" stroke-miterlimit="10" x1="102.4" y1="255.3" x2="108" y2="255.3"/>
	
		<line clip-path="url(#SVGID_2_)" fill="none" stroke="#FF6633" stroke-width="2.8" stroke-miterlimit="10" x1="113.6" y1="255.3" x2="119.2" y2="255.3"/>
	
		<line clip-path="url(#SVGID_2_)" fill="none" stroke="#FF6633" stroke-width="2.8" stroke-miterlimit="10" x1="124.8" y1="255.3" x2="130.4" y2="255.3"/>
	
		<line clip-path="url(#SVGID_2_)" fill="none" stroke="#FF6633" stroke-width="2.8" stroke-miterlimit="10" x1="135.9" y1="255.3" x2="141.5" y2="255.3"/>
	
		<line clip-path="url(#SVGID_2_)" fill="none" stroke="#FF6633" stroke-width="2.8" stroke-miterlimit="10" x1="147.1" y1="255.3" x2="152.7" y2="255.3"/>
	
		<line clip-path="url(#SVGID_2_)" fill="none" stroke="#FF6633" stroke-width="2.8" stroke-miterlimit="10" x1="158.3" y1="255.3" x2="163.9" y2="255.3"/>
	
		<line clip-path="url(#SVGID_2_)" fill="none" stroke="#FF6633" stroke-width="2.8" stroke-miterlimit="10" x1="169.5" y1="255.3" x2="175" y2="255.3"/>
	
		<line clip-path="url(#SVGID_2_)" fill="none" stroke="#FF6633" stroke-width="2.8" stroke-miterlimit="10" x1="180.6" y1="255.3" x2="183.7" y2="255.3"/>
	
		<line clip-path="url(#SVGID_2_)" fill="none" stroke="#FF6633" stroke-width="2.8" stroke-miterlimit="10" x1="91.3" y1="481.7" x2="96.9" y2="481.7"/>
	
		<line clip-path="url(#SVGID_2_)" fill="none" stroke="#FF6633" stroke-width="2.8" stroke-miterlimit="10" x1="102.4" y1="481.7" x2="108" y2="481.7"/>
	
		<line clip-path="url(#SVGID_2_)" fill="none" stroke="#FF6633" stroke-width="2.8" stroke-miterlimit="10" x1="113.6" y1="481.7" x2="119.2" y2="481.7"/>
	
		<line clip-path="url(#SVGID_2_)" fill="none" stroke="#FF6633" stroke-width="2.8" stroke-miterlimit="10" x1="124.8" y1="481.7" x2="130.4" y2="481.7"/>
	
		<line clip-path="url(#SVGID_2_)" fill="none" stroke="#FF6633" stroke-width="2.8" stroke-miterlimit="10" x1="135.9" y1="481.7" x2="141.5" y2="481.7"/>
	
		<line clip-path="url(#SVGID_2_)" fill="none" stroke="#FF6633" stroke-width="2.8" stroke-miterlimit="10" x1="147.1" y1="481.7" x2="152.7" y2="481.7"/>
	
		<line clip-path="url(#SVGID_2_)" fill="none" stroke="#FF6633" stroke-width="2.8" stroke-miterlimit="10" x1="158.3" y1="481.7" x2="163.9" y2="481.7"/>
	
		<line clip-path="url(#SVGID_2_)" fill="none" stroke="#FF6633" stroke-width="2.8" stroke-miterlimit="10" x1="169.5" y1="481.7" x2="175" y2="481.7"/>
	
		<line clip-path="url(#SVGID_2_)" fill="none" stroke="#FF6633" stroke-width="2.8" stroke-miterlimit="10" x1="180.6" y1="481.7" x2="183.7" y2="481.7"/>
	<path clip-path="url(#SVGID_2_)" fill-rule="evenodd" clip-rule="evenodd" fill="#FFFFFF" d="M222.3,266.9
		c-7.7,0-15.4,7.7-15.4,15.4v177.3c0,7.7,7.7,15.4,15.4,15.4h61.6c7.8,0,15.5-7.7,15.5-15.4V282.3c0-7.7-7.7-15.4-15.5-15.4H222.3z"
		/>
	
		<path clip-path="url(#SVGID_2_)" fill="none" stroke="#FF6633" stroke-width="2.83" stroke-linejoin="round" stroke-miterlimit="10" d="
		M222.3,266.9c-7.7,0-15.4,7.7-15.4,15.4v177.3c0,7.7,7.7,15.4,15.4,15.4h61.6c7.8,0,15.5-7.7,15.5-15.4V282.3
		c0-7.7-7.7-15.4-15.5-15.4H222.3z"/>
	
		<path clip-path="url(#SVGID_2_)" fill="none" stroke="#FF6633" stroke-width="2.83" stroke-linejoin="round" stroke-miterlimit="10" d="
		M206.9,266.9L206.9,266.9z"/>
	
		<path clip-path="url(#SVGID_2_)" fill="none" stroke="#FF6633" stroke-width="2.83" stroke-linejoin="round" stroke-miterlimit="10" d="
		M299.4,475L299.4,475z"/>
	<path clip-path="url(#SVGID_2_)" fill-rule="evenodd" clip-rule="evenodd" fill="#FFFFFF" d="M199.2,12.6c26.2,0,46.2,11.7,46.2,27
		c0,15.3-20,26.9-46.2,26.9c-26.3,0-46.3-11.6-46.3-26.9C152.9,24.3,172.9,12.6,199.2,12.6z"/>
	
		<path clip-path="url(#SVGID_2_)" fill="none" stroke="#4C4C4C" stroke-width="1.415" stroke-linejoin="round" stroke-miterlimit="10" d="
		M199.2,12.6c26.2,0,46.2,11.7,46.2,27c0,15.3-20,26.9-46.2,26.9c-26.3,0-46.3-11.6-46.3-26.9C152.9,24.3,172.9,12.6,199.2,12.6z"/>
	
		<path clip-path="url(#SVGID_2_)" fill="none" stroke="#4C4C4C" stroke-width="1.415" stroke-linejoin="round" stroke-miterlimit="10" d="
		M152.9,12.6L152.9,12.6z"/>
	
		<path clip-path="url(#SVGID_2_)" fill="none" stroke="#4C4C4C" stroke-width="1.415" stroke-linejoin="round" stroke-miterlimit="10" d="
		M245.4,66.6L245.4,66.6z"/>
	<path clip-path="url(#SVGID_2_)" d="M191.926,43.624c0,0.345-0.059,0.654-0.176,0.928s-0.277,0.516-0.479,0.728
		c-0.202,0.212-0.437,0.393-0.703,0.542c-0.267,0.15-0.552,0.273-0.854,0.371s-0.614,0.169-0.933,0.215
		c-0.319,0.046-0.632,0.068-0.938,0.068c-0.664,0-1.274-0.029-1.831-0.088s-1.102-0.153-1.636-0.283v-1.563
		c0.573,0.163,1.143,0.287,1.709,0.371c0.566,0.085,1.129,0.127,1.689,0.127c0.813,0,1.416-0.11,1.807-0.332
		c0.391-0.221,0.586-0.537,0.586-0.947c0-0.176-0.031-0.333-0.093-0.474c-0.062-0.14-0.174-0.273-0.337-0.4
		c-0.163-0.127-0.415-0.259-0.757-0.396s-0.809-0.293-1.401-0.469c-0.443-0.13-0.852-0.278-1.226-0.444
		c-0.375-0.166-0.698-0.363-0.972-0.591c-0.273-0.228-0.488-0.495-0.645-0.801c-0.156-0.306-0.234-0.667-0.234-1.084
		c0-0.273,0.063-0.573,0.19-0.898c0.127-0.325,0.343-0.628,0.649-0.908c0.306-0.28,0.719-0.513,1.24-0.698
		c0.521-0.186,1.172-0.278,1.953-0.278c0.384,0,0.811,0.021,1.279,0.063c0.469,0.042,0.957,0.116,1.465,0.22v1.514
		c-0.534-0.13-1.04-0.226-1.519-0.288c-0.479-0.062-0.894-0.093-1.245-0.093c-0.423,0-0.78,0.033-1.069,0.098
		c-0.29,0.065-0.524,0.155-0.703,0.269c-0.179,0.114-0.308,0.248-0.386,0.4c-0.078,0.153-0.117,0.317-0.117,0.493
		s0.034,0.335,0.103,0.479c0.068,0.144,0.195,0.282,0.381,0.415c0.186,0.134,0.444,0.267,0.776,0.4
		c0.332,0.134,0.765,0.278,1.299,0.435c0.579,0.169,1.067,0.347,1.465,0.532c0.397,0.186,0.719,0.393,0.967,0.62
		c0.247,0.228,0.425,0.485,0.532,0.771C191.873,42.934,191.926,43.26,191.926,43.624z M203.277,39.991h-8.398v-1.436h8.398V39.991z
		 M203.277,43.39h-8.398v-1.436h8.398V43.39z M214.796,39.923c0,0.977-0.098,1.867-0.293,2.671c-0.195,0.804-0.492,1.494-0.889,2.07
		s-0.89,1.022-1.479,1.338c-0.589,0.316-1.281,0.474-2.075,0.474c-0.684,0-1.305-0.128-1.865-0.386
		c-0.56-0.257-1.039-0.652-1.436-1.187c-0.397-0.534-0.703-1.214-0.918-2.041c-0.215-0.827-0.322-1.807-0.322-2.939
		c0-0.977,0.099-1.868,0.298-2.676c0.199-0.807,0.495-1.499,0.889-2.075s0.887-1.022,1.479-1.338
		c0.592-0.315,1.283-0.474,2.07-0.474c0.684,0,1.305,0.129,1.865,0.386c0.56,0.257,1.039,0.654,1.436,1.191s0.703,1.219,0.918,2.046
		C214.689,37.811,214.796,38.79,214.796,39.923z M207.238,39.864c0,0.202,0.001,0.404,0.005,0.605
		c0.003,0.202,0.015,0.397,0.034,0.586l5.4-3.994c-0.098-0.332-0.221-0.635-0.371-0.908s-0.329-0.509-0.537-0.708
		c-0.208-0.198-0.446-0.353-0.713-0.464c-0.267-0.11-0.566-0.166-0.898-0.166c-0.443,0-0.845,0.107-1.206,0.322
		s-0.669,0.536-0.923,0.962c-0.254,0.427-0.449,0.954-0.586,1.582C207.306,38.31,207.238,39.038,207.238,39.864z M213.078,39.981
		c0-0.221-0.008-0.441-0.024-0.659c-0.016-0.218-0.034-0.431-0.054-0.64l-5.4,4.014c0.098,0.339,0.221,0.651,0.371,0.938
		c0.15,0.287,0.331,0.532,0.542,0.737s0.453,0.365,0.723,0.479c0.27,0.114,0.578,0.171,0.923,0.171c0.443,0,0.845-0.107,1.206-0.322
		s0.669-0.534,0.923-0.957c0.254-0.423,0.449-0.949,0.586-1.577C213.009,41.536,213.078,40.809,213.078,39.981z"/>
	<path clip-path="url(#SVGID_2_)" fill-rule="evenodd" clip-rule="evenodd" fill="#FFFFFF" d="M137.5,124.3
		c26.2,0,46.2,11.7,46.2,27c0,15.3-20,27-46.2,27s-46.2-11.7-46.2-27C91.3,136,111.3,124.3,137.5,124.3z"/>
	
		<path clip-path="url(#SVGID_2_)" fill="none" stroke="#4C4C4C" stroke-width="1.415" stroke-linejoin="round" stroke-miterlimit="10" d="
		M137.5,124.3c26.2,0,46.2,11.7,46.2,27c0,15.3-20,27-46.2,27s-46.2-11.7-46.2-27C91.3,136,111.3,124.3,137.5,124.3z"/>
	
		<path clip-path="url(#SVGID_2_)" fill="none" stroke="#4C4C4C" stroke-width="1.415" stroke-linejoin="round" stroke-miterlimit="10" d="
		M91.3,124.3L91.3,124.3z"/>
	
		<path clip-path="url(#SVGID_2_)" fill="none" stroke="#4C4C4C" stroke-width="1.415" stroke-linejoin="round" stroke-miterlimit="10" d="
		M183.8,178.3L183.8,178.3z"/>
	<path clip-path="url(#SVGID_2_)" d="M128.861,158l-0.039-1.318c-0.534,0.527-1.076,0.908-1.626,1.143s-1.128,0.352-1.733,0.352
		c-0.56,0-1.039-0.072-1.436-0.215s-0.724-0.34-0.981-0.591s-0.446-0.545-0.566-0.884s-0.181-0.707-0.181-1.104
		c0-0.983,0.366-1.753,1.099-2.31s1.815-0.835,3.247-0.835h2.031v-0.859c0-0.58-0.186-1.043-0.557-1.392s-0.938-0.522-1.699-0.522
		c-0.553,0-1.099,0.062-1.636,0.186s-1.092,0.299-1.665,0.527v-1.533c0.215-0.078,0.454-0.155,0.718-0.229s0.542-0.142,0.835-0.2
		s0.599-0.106,0.918-0.142s0.641-0.054,0.967-0.054c0.592,0,1.126,0.065,1.602,0.195s0.877,0.329,1.206,0.596
		s0.581,0.602,0.757,1.006s0.264,0.879,0.264,1.426V158H128.861z M128.676,153.537h-2.158c-0.423,0-0.788,0.042-1.094,0.127
		s-0.557,0.205-0.752,0.361s-0.34,0.343-0.435,0.562s-0.142,0.464-0.142,0.737c0,0.189,0.029,0.37,0.088,0.542
		s0.153,0.326,0.283,0.459s0.299,0.239,0.508,0.317s0.462,0.117,0.762,0.117c0.391,0,0.838-0.119,1.343-0.356
		s1.037-0.614,1.597-1.128V153.537z M141.677,151.691h-8.398v-1.436h8.398V151.691z M141.677,155.09h-8.398v-1.436h8.398V155.09z
		 M152.286,155.324c0,0.345-0.059,0.654-0.176,0.928s-0.277,0.516-0.479,0.728c-0.202,0.211-0.437,0.392-0.703,0.542
		c-0.267,0.15-0.552,0.273-0.854,0.371s-0.614,0.169-0.933,0.215c-0.319,0.045-0.632,0.068-0.938,0.068
		c-0.664,0-1.274-0.029-1.831-0.088s-1.102-0.153-1.636-0.283v-1.563c0.573,0.163,1.143,0.287,1.709,0.371s1.129,0.127,1.689,0.127
		c0.813,0,1.416-0.111,1.807-0.332s0.586-0.537,0.586-0.947c0-0.176-0.031-0.333-0.093-0.474c-0.062-0.14-0.174-0.273-0.337-0.4
		c-0.163-0.127-0.415-0.259-0.757-0.396s-0.809-0.293-1.401-0.469c-0.443-0.13-0.852-0.278-1.226-0.444
		c-0.375-0.166-0.698-0.363-0.972-0.591s-0.488-0.495-0.645-0.801s-0.234-0.667-0.234-1.084c0-0.273,0.063-0.573,0.19-0.898
		s0.343-0.628,0.649-0.908c0.306-0.28,0.719-0.513,1.24-0.698c0.521-0.186,1.172-0.278,1.953-0.278c0.384,0,0.811,0.021,1.279,0.063
		s0.957,0.116,1.465,0.22v1.514c-0.534-0.13-1.04-0.226-1.519-0.288s-0.894-0.093-1.245-0.093c-0.423,0-0.78,0.033-1.069,0.098
		c-0.29,0.065-0.524,0.155-0.703,0.269c-0.179,0.114-0.308,0.248-0.386,0.4s-0.117,0.317-0.117,0.493s0.034,0.335,0.103,0.479
		s0.195,0.282,0.381,0.415s0.444,0.267,0.776,0.4s0.765,0.278,1.299,0.435c0.579,0.169,1.067,0.347,1.465,0.532
		c0.397,0.186,0.719,0.392,0.967,0.62c0.247,0.228,0.425,0.485,0.532,0.771S152.286,154.959,152.286,155.324z"/>
	<path clip-path="url(#SVGID_2_)" fill-rule="evenodd" clip-rule="evenodd" fill="#FFFFFF" d="M137.4,201.3
		c26.2,0,46.3,11.7,46.3,27c0,15.3-20.1,27-46.3,27c-26.2,0-46.2-11.7-46.2-27C91.2,213,111.2,201.3,137.4,201.3z"/>
	
		<path clip-path="url(#SVGID_2_)" fill="none" stroke="#4C4C4C" stroke-width="1.415" stroke-linejoin="round" stroke-miterlimit="10" d="
		M137.4,201.3c26.2,0,46.3,11.7,46.3,27c0,15.3-20.1,27-46.3,27c-26.2,0-46.2-11.7-46.2-27C91.2,213,111.2,201.3,137.4,201.3z"/>
	
		<path clip-path="url(#SVGID_2_)" fill="none" stroke="#4C4C4C" stroke-width="1.415" stroke-linejoin="round" stroke-miterlimit="10" d="
		M91.2,201.3L91.2,201.3z"/>
	
		<path clip-path="url(#SVGID_2_)" fill="none" stroke="#4C4C4C" stroke-width="1.415" stroke-linejoin="round" stroke-miterlimit="10" d="
		M183.7,255.3L183.7,255.3z"/>
	<path clip-path="url(#SVGID_2_)" d="M114.702,226.602h-2.9v-1.406h4.619v8.389h2.92V235h-7.861v-1.416h3.223V226.602z
		 M115.298,221.084c0.189,0,0.365,0.034,0.527,0.103c0.163,0.068,0.305,0.165,0.425,0.288c0.121,0.124,0.215,0.265,0.283,0.425
		s0.103,0.333,0.103,0.522c0,0.182-0.034,0.355-0.103,0.518s-0.163,0.306-0.283,0.43c-0.12,0.124-0.262,0.22-0.425,0.288
		c-0.163,0.068-0.338,0.103-0.527,0.103c-0.188,0-0.364-0.034-0.527-0.103c-0.163-0.068-0.304-0.165-0.425-0.288
		c-0.12-0.124-0.215-0.267-0.283-0.43s-0.103-0.335-0.103-0.518c0-0.189,0.034-0.363,0.103-0.522s0.163-0.301,0.283-0.425
		c0.121-0.124,0.262-0.22,0.425-0.288C114.934,221.118,115.109,221.084,115.298,221.084z M122.442,225.195h1.514l0.068,1.582
		c0.287-0.338,0.563-0.62,0.83-0.845s0.529-0.405,0.786-0.542s0.519-0.233,0.786-0.288s0.543-0.083,0.83-0.083
		c1.009,0,1.772,0.298,2.29,0.894s0.776,1.493,0.776,2.69V235h-1.699v-6.26c0-0.768-0.143-1.336-0.43-1.704
		s-0.713-0.552-1.279-0.552c-0.208,0-0.412,0.031-0.61,0.093s-0.405,0.169-0.62,0.322s-0.448,0.36-0.698,0.62
		s-0.532,0.586-0.845,0.977V235h-1.699V225.195z M141.04,234.639c-0.443,0.169-0.897,0.294-1.362,0.376s-0.946,0.122-1.44,0.122
		c-1.549,0-2.743-0.42-3.579-1.26s-1.255-2.067-1.255-3.682c0-0.775,0.121-1.478,0.361-2.109s0.58-1.172,1.016-1.621
		s0.957-0.796,1.563-1.04s1.273-0.366,2.002-0.366c0.508,0,0.983,0.036,1.426,0.107s0.866,0.189,1.27,0.352v1.621
		c-0.423-0.221-0.854-0.382-1.294-0.483s-0.894-0.151-1.362-0.151c-0.436,0-0.848,0.083-1.235,0.249s-0.728,0.405-1.021,0.718
		s-0.524,0.693-0.693,1.143s-0.254,0.957-0.254,1.523c0,1.185,0.288,2.072,0.864,2.661s1.375,0.884,2.397,0.884
		c0.462,0,0.91-0.052,1.343-0.156s0.851-0.26,1.255-0.469V234.639z M161.781,235l-0.039-1.318c-0.534,0.527-1.076,0.908-1.626,1.143
		c-0.55,0.234-1.128,0.352-1.733,0.352c-0.56,0-1.039-0.072-1.436-0.215c-0.397-0.143-0.725-0.34-0.981-0.591
		c-0.257-0.25-0.446-0.545-0.566-0.884c-0.121-0.338-0.181-0.707-0.181-1.104c0-0.983,0.366-1.753,1.099-2.31
		s1.814-0.835,3.247-0.835h2.031v-0.859c0-0.58-0.186-1.043-0.557-1.392s-0.938-0.522-1.699-0.522c-0.554,0-1.099,0.062-1.636,0.186
		s-1.092,0.299-1.665,0.527v-1.533c0.215-0.078,0.454-0.155,0.718-0.229s0.542-0.142,0.835-0.2s0.599-0.106,0.918-0.142
		c0.319-0.036,0.641-0.054,0.967-0.054c0.592,0,1.126,0.065,1.602,0.195c0.475,0.13,0.877,0.329,1.206,0.596
		c0.329,0.267,0.581,0.602,0.757,1.006s0.264,0.879,0.264,1.426V235H161.781z M161.596,230.537h-2.158
		c-0.423,0-0.788,0.042-1.094,0.127c-0.306,0.084-0.557,0.205-0.752,0.361s-0.34,0.343-0.435,0.562
		c-0.095,0.218-0.142,0.464-0.142,0.737c0,0.189,0.029,0.37,0.088,0.542s0.153,0.326,0.283,0.459
		c0.13,0.133,0.299,0.239,0.508,0.317c0.208,0.078,0.462,0.117,0.762,0.117c0.391,0,0.838-0.119,1.343-0.356
		c0.504-0.238,1.037-0.614,1.597-1.128V230.537z"/>
	<path clip-path="url(#SVGID_2_)" fill-rule="evenodd" clip-rule="evenodd" fill="#FFFFFF" d="M137.4,482.6
		c26.2,0,46.3,11.7,46.3,27c0,15.301-20.1,26.9-46.3,26.9c-26.2,0-46.2-11.6-46.2-26.9C91.2,494.3,111.2,482.6,137.4,482.6z"/>
	
		<path clip-path="url(#SVGID_2_)" fill="none" stroke="#4C4C4C" stroke-width="1.415" stroke-linejoin="round" stroke-miterlimit="10" d="
		M137.4,482.6c26.2,0,46.3,11.7,46.3,27c0,15.301-20.1,26.9-46.3,26.9c-26.2,0-46.2-11.6-46.2-26.9
		C91.2,494.3,111.2,482.6,137.4,482.6z"/>
	
		<path clip-path="url(#SVGID_2_)" fill="none" stroke="#4C4C4C" stroke-width="1.415" stroke-linejoin="round" stroke-miterlimit="10" d="
		M91.2,482.6L91.2,482.6z"/>
	
		<path clip-path="url(#SVGID_2_)" fill="none" stroke="#4C4C4C" stroke-width="1.415" stroke-linejoin="round" stroke-miterlimit="10" d="
		M183.7,536.6L183.7,536.6z"/>
	<path clip-path="url(#SVGID_2_)" d="M130.226,513.624c0,0.346-0.059,0.654-0.176,0.928s-0.277,0.517-0.479,0.728
		c-0.202,0.212-0.436,0.393-0.703,0.542c-0.267,0.15-0.552,0.273-0.854,0.371s-0.614,0.169-0.933,0.215s-0.631,0.068-0.938,0.068
		c-0.664,0-1.274-0.029-1.831-0.088s-1.102-0.152-1.636-0.283v-1.563c0.573,0.163,1.143,0.287,1.709,0.371
		c0.566,0.085,1.129,0.127,1.689,0.127c0.814,0,1.416-0.11,1.807-0.332c0.391-0.221,0.586-0.537,0.586-0.947
		c0-0.176-0.031-0.333-0.093-0.474c-0.062-0.14-0.174-0.273-0.337-0.4s-0.415-0.259-0.757-0.396s-0.809-0.293-1.401-0.469
		c-0.443-0.13-0.851-0.278-1.226-0.444s-0.698-0.362-0.972-0.591c-0.273-0.228-0.488-0.494-0.645-0.801
		c-0.156-0.306-0.234-0.667-0.234-1.084c0-0.273,0.063-0.572,0.19-0.898c0.127-0.325,0.343-0.628,0.649-0.908
		c0.306-0.279,0.719-0.513,1.24-0.698s1.172-0.278,1.953-0.278c0.384,0,0.811,0.021,1.279,0.063c0.469,0.043,0.957,0.116,1.465,0.22
		v1.514c-0.534-0.13-1.04-0.226-1.519-0.288c-0.479-0.062-0.894-0.093-1.245-0.093c-0.423,0-0.78,0.033-1.069,0.098
		c-0.29,0.065-0.524,0.155-0.703,0.269c-0.179,0.114-0.308,0.248-0.386,0.4c-0.078,0.153-0.117,0.317-0.117,0.493
		s0.034,0.336,0.103,0.479c0.068,0.144,0.195,0.282,0.381,0.415c0.186,0.134,0.444,0.268,0.776,0.4
		c0.332,0.134,0.765,0.278,1.299,0.435c0.58,0.17,1.068,0.347,1.465,0.532s0.719,0.393,0.967,0.62
		c0.248,0.229,0.425,0.485,0.532,0.771C130.172,512.935,130.226,513.26,130.226,513.624z M141.577,509.991h-8.398v-1.436h8.398
		V509.991z M141.577,513.39h-8.398v-1.436h8.398V513.39z M150.821,516.3l-0.039-1.318c-0.534,0.527-1.076,0.908-1.626,1.143
		c-0.55,0.234-1.128,0.352-1.733,0.352c-0.56,0-1.039-0.071-1.436-0.215c-0.397-0.143-0.725-0.34-0.981-0.591
		c-0.257-0.25-0.446-0.545-0.566-0.884c-0.121-0.338-0.181-0.706-0.181-1.104c0-0.982,0.366-1.753,1.099-2.31
		s1.814-0.835,3.247-0.835h2.031v-0.859c0-0.579-0.186-1.043-0.557-1.392c-0.371-0.348-0.938-0.522-1.699-0.522
		c-0.554,0-1.099,0.063-1.636,0.186c-0.537,0.124-1.092,0.3-1.665,0.527v-1.533c0.215-0.078,0.454-0.154,0.718-0.229
		c0.264-0.074,0.542-0.142,0.835-0.2s0.599-0.105,0.918-0.142c0.319-0.035,0.641-0.054,0.967-0.054c0.592,0,1.126,0.065,1.602,0.195
		c0.475,0.131,0.877,0.329,1.206,0.596c0.329,0.268,0.581,0.603,0.757,1.006c0.176,0.404,0.264,0.879,0.264,1.426v6.758H150.821z
		 M150.636,511.837h-2.158c-0.423,0-0.788,0.043-1.094,0.127c-0.306,0.085-0.557,0.205-0.752,0.361s-0.34,0.344-0.435,0.562
		c-0.095,0.219-0.142,0.464-0.142,0.737c0,0.189,0.029,0.37,0.088,0.542c0.059,0.173,0.153,0.326,0.283,0.459
		c0.13,0.134,0.299,0.239,0.508,0.317c0.208,0.078,0.462,0.117,0.762,0.117c0.391,0,0.838-0.118,1.343-0.356
		c0.504-0.237,1.037-0.613,1.597-1.128V511.837z"/>
	<path clip-path="url(#SVGID_2_)" fill="none" stroke="#FFFFFF" stroke-width="1.4" stroke-miterlimit="10" d="M200.6,67.9
		c0,43.4-45.1,21.4-58.2,43.1"/>
	<polygon clip-path="url(#SVGID_2_)" fill-rule="evenodd" clip-rule="evenodd" fill="#FFFFFF" points="138.9,125.7 148.1,111.4 
		137.7,108.8 	"/>
	<path clip-path="url(#SVGID_2_)" fill="none" stroke="#4C4C4C" stroke-width="1.4" stroke-miterlimit="10" d="M199.2,66.5
		c0,43.4-45.1,21.4-58.2,43.1"/>
	<polygon clip-path="url(#SVGID_2_)" fill-rule="evenodd" clip-rule="evenodd" fill="#4C4C4C" points="137.5,124.3 146.7,110 
		136.3,107.3 	"/>
	<path clip-path="url(#SVGID_2_)" fill="none" stroke="#4C4C4C" stroke-width="1.4" stroke-miterlimit="10" d="M137.5,178.3
		c0,17.3,0,6.1,0,7.7"/>
	<polygon clip-path="url(#SVGID_2_)" fill-rule="evenodd" clip-rule="evenodd" fill="#4C4C4C" points="137.5,201.4 142.9,185.2 
		132.1,185.2 	"/>
	<path clip-path="url(#SVGID_2_)" fill="none" stroke="#4C4C4C" stroke-width="1.4" stroke-miterlimit="10" d="M137.5,255.3
		c0,170.5,0,64.6,0,210.101"/>
	<polygon clip-path="url(#SVGID_2_)" fill-rule="evenodd" clip-rule="evenodd" fill="#4C4C4C" points="137.5,482.6 142.8,466.5 
		132.1,466.5 	"/>
	<path clip-path="url(#SVGID_2_)" fill="none" stroke="#FFFFFF" stroke-width="1.4" stroke-miterlimit="10" d="M138.9,538
		c0,37.6,41.3,19.2,55.2,35.8"/>
	<polygon clip-path="url(#SVGID_2_)" fill-rule="evenodd" clip-rule="evenodd" fill="#FFFFFF" points="198.7,588.1 198.6,571.1 
		188.4,574.5 	"/>
	<path clip-path="url(#SVGID_2_)" fill="none" stroke="#4C4C4C" stroke-width="1.4" stroke-miterlimit="10" d="M137.5,536.5
		c0,37.7,41.3,19.3,55.2,35.9"/>
	<polygon clip-path="url(#SVGID_2_)" fill-rule="evenodd" clip-rule="evenodd" fill="#4C4C4C" points="197.2,586.7 197.2,569.7 
		187,573.1 	"/>
	<path clip-path="url(#SVGID_2_)" fill-rule="evenodd" clip-rule="evenodd" fill="#FFFFFF" d="M253.1,266.9
		c26.2,0,46.2,11.7,46.2,26.9c0,15.3-20,27-46.2,27c-26.2,0-46.3-11.7-46.3-27C206.8,278.6,226.9,266.9,253.1,266.9z"/>
	
		<path clip-path="url(#SVGID_2_)" fill="none" stroke="#4C4C4C" stroke-width="1.415" stroke-linejoin="round" stroke-miterlimit="10" d="
		M253.1,266.9c26.2,0,46.2,11.7,46.2,26.9c0,15.3-20,27-46.2,27c-26.2,0-46.3-11.7-46.3-27C206.8,278.6,226.9,266.9,253.1,266.9z"/>
	
		<path clip-path="url(#SVGID_2_)" fill="none" stroke="#4C4C4C" stroke-width="1.415" stroke-linejoin="round" stroke-miterlimit="10" d="
		M206.8,266.9L206.8,266.9z"/>
	
		<path clip-path="url(#SVGID_2_)" fill="none" stroke="#4C4C4C" stroke-width="1.415" stroke-linejoin="round" stroke-miterlimit="10" d="
		M299.3,320.8L299.3,320.8z"/>
	<path clip-path="url(#SVGID_2_)" d="M246.441,295.522c0,0.814-0.112,1.542-0.337,2.183s-0.543,1.185-0.957,1.631
		s-0.917,0.788-1.509,1.025s-1.26,0.356-2.002,0.356c-0.58,0-1.172-0.056-1.777-0.166c-0.605-0.111-1.205-0.287-1.797-0.527v-13.223
		h1.699v3.799l-0.078,1.816c0.488-0.658,1.011-1.122,1.567-1.392s1.154-0.405,1.792-0.405c0.56,0,1.051,0.117,1.475,0.352
		s0.778,0.565,1.064,0.991s0.501,0.941,0.645,1.543S246.441,294.78,246.441,295.522z M244.703,295.6
		c0-0.514-0.038-0.986-0.112-1.416s-0.194-0.797-0.356-1.104s-0.371-0.545-0.625-0.718s-0.557-0.259-0.908-0.259
		c-0.215,0-0.433,0.034-0.654,0.103s-0.451,0.182-0.688,0.342s-0.488,0.371-0.752,0.635s-0.545,0.591-0.845,0.981v4.756
		c0.332,0.13,0.67,0.233,1.016,0.308s0.674,0.112,0.986,0.112c0.391,0,0.763-0.062,1.118-0.186s0.667-0.331,0.938-0.62
		s0.485-0.674,0.645-1.152S244.703,296.31,244.703,295.6z M257.177,294.292h-8.398v-1.436h8.398V294.292z M257.177,297.69h-8.398
		v-1.436h8.398V297.69z M267.886,297.924c0,0.345-0.059,0.654-0.176,0.928s-0.277,0.516-0.479,0.728
		c-0.202,0.211-0.437,0.392-0.703,0.542c-0.267,0.15-0.552,0.273-0.854,0.371s-0.614,0.169-0.933,0.215
		c-0.319,0.045-0.632,0.068-0.938,0.068c-0.664,0-1.274-0.029-1.831-0.088s-1.102-0.153-1.636-0.283v-1.563
		c0.573,0.163,1.143,0.287,1.709,0.371s1.129,0.127,1.689,0.127c0.813,0,1.416-0.111,1.807-0.332s0.586-0.537,0.586-0.947
		c0-0.176-0.031-0.333-0.093-0.474c-0.062-0.14-0.174-0.273-0.337-0.4c-0.163-0.127-0.415-0.259-0.757-0.396
		s-0.809-0.293-1.401-0.469c-0.443-0.13-0.852-0.278-1.226-0.444c-0.375-0.166-0.698-0.363-0.972-0.591s-0.488-0.495-0.645-0.801
		s-0.234-0.667-0.234-1.084c0-0.273,0.063-0.573,0.19-0.898s0.343-0.628,0.649-0.908c0.306-0.28,0.719-0.513,1.24-0.698
		c0.521-0.186,1.172-0.278,1.953-0.278c0.384,0,0.811,0.021,1.279,0.063s0.957,0.116,1.465,0.22v1.514
		c-0.534-0.13-1.04-0.226-1.519-0.288s-0.894-0.093-1.245-0.093c-0.423,0-0.78,0.033-1.069,0.098
		c-0.29,0.065-0.524,0.155-0.703,0.269c-0.179,0.114-0.308,0.248-0.386,0.4s-0.117,0.317-0.117,0.493s0.034,0.335,0.103,0.479
		s0.195,0.282,0.381,0.415s0.444,0.267,0.776,0.4s0.765,0.278,1.299,0.435c0.579,0.169,1.067,0.347,1.465,0.532
		c0.397,0.186,0.719,0.392,0.967,0.62c0.247,0.228,0.425,0.485,0.532,0.771S267.886,297.56,267.886,297.924z"/>
	<path clip-path="url(#SVGID_2_)" fill-rule="evenodd" clip-rule="evenodd" fill="#FFFFFF" d="M253,343.9
		c26.2,0,46.2,11.699,46.2,27c0,15.3-20,27-46.2,27s-46.2-11.7-46.2-27C206.8,355.6,226.8,343.9,253,343.9z"/>
	
		<path clip-path="url(#SVGID_2_)" fill="none" stroke="#4C4C4C" stroke-width="1.415" stroke-linejoin="round" stroke-miterlimit="10" d="
		M253,343.9c26.2,0,46.2,11.699,46.2,27c0,15.3-20,27-46.2,27s-46.2-11.7-46.2-27C206.8,355.6,226.8,343.9,253,343.9z"/>
	
		<path clip-path="url(#SVGID_2_)" fill="none" stroke="#4C4C4C" stroke-width="1.415" stroke-linejoin="round" stroke-miterlimit="10" d="
		M206.8,343.9L206.8,343.9z"/>
	
		<path clip-path="url(#SVGID_2_)" fill="none" stroke="#4C4C4C" stroke-width="1.415" stroke-linejoin="round" stroke-miterlimit="10" d="
		M299.3,397.9L299.3,397.9z"/>
	<path clip-path="url(#SVGID_2_)" d="M230.302,369.201h-2.9v-1.406h4.619v8.389h2.92v1.416h-7.861v-1.416h3.223V369.201z
		 M230.898,363.684c0.189,0,0.365,0.034,0.527,0.103s0.304,0.165,0.425,0.288c0.121,0.124,0.215,0.266,0.283,0.425
		c0.068,0.16,0.103,0.334,0.103,0.522c0,0.183-0.034,0.355-0.103,0.518c-0.068,0.163-0.163,0.307-0.283,0.43
		c-0.121,0.124-0.262,0.22-0.425,0.288s-0.338,0.103-0.527,0.103s-0.365-0.034-0.527-0.103s-0.304-0.164-0.425-0.288
		c-0.121-0.123-0.215-0.267-0.283-0.43c-0.068-0.162-0.103-0.335-0.103-0.518c0-0.188,0.034-0.362,0.103-0.522
		c0.068-0.159,0.163-0.301,0.283-0.425c0.121-0.123,0.262-0.22,0.425-0.288S230.709,363.684,230.898,363.684z M237.942,367.795
		h1.514l0.068,1.582c0.287-0.338,0.563-0.62,0.83-0.845s0.529-0.405,0.786-0.542s0.519-0.232,0.786-0.288
		c0.267-0.055,0.543-0.083,0.83-0.083c1.009,0,1.772,0.298,2.29,0.894s0.776,1.493,0.776,2.69v6.396h-1.699v-6.26
		c0-0.768-0.143-1.336-0.43-1.704c-0.287-0.367-0.713-0.552-1.279-0.552c-0.208,0-0.412,0.031-0.61,0.093
		c-0.199,0.063-0.405,0.17-0.62,0.322c-0.215,0.153-0.448,0.36-0.698,0.62c-0.25,0.261-0.532,0.586-0.845,0.977v6.504h-1.699
		V367.795z M256.64,377.238c-0.443,0.17-0.897,0.295-1.362,0.376c-0.466,0.082-0.946,0.122-1.44,0.122
		c-1.55,0-2.743-0.42-3.579-1.26c-0.837-0.84-1.255-2.066-1.255-3.682c0-0.774,0.12-1.478,0.361-2.109
		c0.241-0.631,0.579-1.172,1.016-1.621c0.436-0.449,0.957-0.796,1.563-1.04s1.272-0.366,2.002-0.366
		c0.508,0,0.983,0.036,1.426,0.107c0.442,0.072,0.866,0.189,1.27,0.352v1.621c-0.423-0.221-0.854-0.382-1.294-0.483
		c-0.439-0.101-0.894-0.151-1.362-0.151c-0.437,0-0.848,0.083-1.235,0.249c-0.388,0.166-0.728,0.405-1.021,0.718
		s-0.524,0.693-0.693,1.143c-0.169,0.449-0.254,0.957-0.254,1.523c0,1.186,0.288,2.072,0.864,2.661
		c0.576,0.59,1.375,0.884,2.397,0.884c0.462,0,0.91-0.052,1.343-0.156c0.433-0.104,0.851-0.26,1.255-0.469V377.238z
		 M279.461,372.521c0,0.814-0.112,1.542-0.337,2.183c-0.225,0.642-0.543,1.186-0.957,1.631c-0.414,0.446-0.917,0.788-1.509,1.025
		c-0.592,0.238-1.26,0.356-2.002,0.356c-0.58,0-1.172-0.055-1.777-0.166c-0.605-0.11-1.205-0.286-1.797-0.527v-13.223h1.699v3.799
		l-0.078,1.816c0.488-0.657,1.011-1.121,1.567-1.392c0.557-0.27,1.154-0.405,1.792-0.405c0.56,0,1.051,0.117,1.475,0.352
		s0.778,0.565,1.064,0.991c0.287,0.427,0.501,0.941,0.645,1.543C279.389,371.107,279.461,371.779,279.461,372.521z M277.723,372.6
		c0-0.514-0.038-0.986-0.112-1.416s-0.194-0.797-0.356-1.104c-0.163-0.306-0.371-0.545-0.625-0.718
		c-0.254-0.172-0.557-0.259-0.908-0.259c-0.215,0-0.433,0.034-0.654,0.103s-0.451,0.183-0.688,0.342
		c-0.238,0.16-0.488,0.371-0.752,0.635s-0.545,0.591-0.845,0.981v4.756c0.332,0.131,0.67,0.233,1.016,0.308
		c0.345,0.075,0.674,0.112,0.986,0.112c0.391,0,0.763-0.062,1.118-0.186c0.355-0.123,0.667-0.33,0.938-0.62
		c0.27-0.289,0.485-0.674,0.645-1.152S277.723,373.31,277.723,372.6z"/>
	<path clip-path="url(#SVGID_2_)" fill-rule="evenodd" clip-rule="evenodd" fill="#FFFFFF" d="M252.9,420.9
		c26.3,0,46.3,11.699,46.3,26.899c0,15.3-20,27-46.3,27c-26.2,0-46.2-11.7-46.2-27C206.7,432.6,226.7,420.9,252.9,420.9z"/>
	
		<path clip-path="url(#SVGID_2_)" fill="none" stroke="#4C4C4C" stroke-width="1.415" stroke-linejoin="round" stroke-miterlimit="10" d="
		M252.9,420.9c26.3,0,46.3,11.699,46.3,26.899c0,15.3-20,27-46.3,27c-26.2,0-46.2-11.7-46.2-27C206.7,432.6,226.7,420.9,252.9,420.9
		z"/>
	
		<path clip-path="url(#SVGID_2_)" fill="none" stroke="#4C4C4C" stroke-width="1.415" stroke-linejoin="round" stroke-miterlimit="10" d="
		M206.7,420.9L206.7,420.9z"/>
	
		<path clip-path="url(#SVGID_2_)" fill="none" stroke="#4C4C4C" stroke-width="1.415" stroke-linejoin="round" stroke-miterlimit="10" d="
		M299.2,474.9L299.2,474.9z"/>
	<path clip-path="url(#SVGID_2_)" d="M245.726,451.924c0,0.346-0.059,0.654-0.176,0.928s-0.277,0.517-0.479,0.728
		c-0.202,0.212-0.436,0.393-0.703,0.542c-0.267,0.15-0.552,0.273-0.854,0.371s-0.614,0.17-0.933,0.215
		c-0.319,0.046-0.631,0.068-0.938,0.068c-0.664,0-1.274-0.029-1.831-0.088s-1.102-0.152-1.636-0.283v-1.563
		c0.573,0.163,1.143,0.287,1.709,0.371c0.566,0.085,1.129,0.127,1.689,0.127c0.814,0,1.416-0.11,1.807-0.332
		c0.391-0.221,0.586-0.537,0.586-0.947c0-0.176-0.031-0.333-0.093-0.474c-0.062-0.14-0.174-0.273-0.337-0.4
		s-0.415-0.259-0.757-0.396s-0.809-0.293-1.401-0.469c-0.443-0.13-0.851-0.278-1.226-0.444s-0.698-0.362-0.972-0.591
		c-0.273-0.228-0.488-0.494-0.645-0.801c-0.156-0.306-0.234-0.667-0.234-1.084c0-0.273,0.063-0.572,0.19-0.898
		c0.127-0.325,0.343-0.628,0.649-0.908c0.306-0.279,0.719-0.513,1.24-0.698s1.172-0.278,1.953-0.278
		c0.384,0,0.811,0.021,1.279,0.063c0.469,0.043,0.957,0.116,1.465,0.22v1.514c-0.534-0.13-1.04-0.226-1.519-0.288
		c-0.479-0.062-0.894-0.093-1.245-0.093c-0.423,0-0.78,0.033-1.069,0.098c-0.29,0.065-0.524,0.155-0.703,0.269
		c-0.179,0.114-0.308,0.248-0.386,0.4c-0.078,0.153-0.117,0.317-0.117,0.493s0.034,0.336,0.103,0.479
		c0.068,0.144,0.195,0.282,0.381,0.415c0.186,0.134,0.444,0.268,0.776,0.4c0.332,0.134,0.765,0.278,1.299,0.435
		c0.58,0.17,1.068,0.347,1.465,0.532s0.719,0.393,0.967,0.62c0.248,0.229,0.425,0.485,0.532,0.771
		C245.672,451.234,245.726,451.56,245.726,451.924z M257.077,448.291h-8.398v-1.436h8.398V448.291z M257.077,451.689h-8.398v-1.436
		h8.398V451.689z M268.401,449.521c0,0.814-0.112,1.542-0.337,2.183c-0.225,0.642-0.544,1.186-0.957,1.631
		c-0.414,0.446-0.917,0.788-1.509,1.025c-0.593,0.238-1.26,0.356-2.002,0.356c-0.58,0-1.172-0.055-1.777-0.166
		c-0.605-0.11-1.205-0.286-1.797-0.527v-13.223h1.699v3.799l-0.078,1.816c0.488-0.657,1.011-1.121,1.567-1.392
		c0.557-0.27,1.154-0.405,1.792-0.405c0.56,0,1.051,0.117,1.475,0.352c0.423,0.234,0.778,0.565,1.064,0.991
		c0.286,0.427,0.501,0.941,0.645,1.543C268.33,448.107,268.401,448.779,268.401,449.521z M266.663,449.6
		c0-0.514-0.038-0.986-0.112-1.416c-0.075-0.43-0.194-0.797-0.356-1.104c-0.163-0.306-0.371-0.545-0.625-0.718
		c-0.254-0.172-0.557-0.259-0.908-0.259c-0.215,0-0.433,0.034-0.654,0.103c-0.222,0.068-0.451,0.183-0.688,0.342
		c-0.238,0.16-0.488,0.371-0.752,0.635s-0.545,0.591-0.845,0.981v4.756c0.332,0.131,0.67,0.233,1.016,0.308
		c0.345,0.075,0.674,0.112,0.986,0.112c0.391,0,0.763-0.062,1.118-0.186c0.354-0.123,0.667-0.33,0.938-0.62
		c0.27-0.289,0.485-0.674,0.645-1.152C266.583,450.903,266.663,450.31,266.663,449.6z"/>
	<path clip-path="url(#SVGID_2_)" fill="none" stroke="#4C4C4C" stroke-width="1.4" stroke-miterlimit="10" d="M253.1,320.8
		c0,17.3,0,6.1,0,7.7"/>
	<polygon clip-path="url(#SVGID_2_)" fill-rule="evenodd" clip-rule="evenodd" fill="#4C4C4C" points="253,343.9 258.5,327.7 
		247.7,327.7 	"/>
	<path clip-path="url(#SVGID_2_)" fill="none" stroke="#4C4C4C" stroke-width="1.4" stroke-miterlimit="10" d="M253,397.9
		c0,17.3,0,6,0,7.6"/>
	<polygon clip-path="url(#SVGID_2_)" fill-rule="evenodd" clip-rule="evenodd" fill="#4C4C4C" points="253,420.9 258.4,404.8 
		247.7,404.7 	"/>
	<path clip-path="url(#SVGID_2_)" fill="none" stroke="#FFFFFF" stroke-width="1.4" stroke-miterlimit="10" d="M200.6,67.9
		c0,150.3,49.7,57.8,53.6,183.6"/>
	<polygon clip-path="url(#SVGID_2_)" fill-rule="evenodd" clip-rule="evenodd" fill="#FFFFFF" points="254.5,268.3 259.6,252.1 
		248.9,252.2 	"/>
	<path clip-path="url(#SVGID_2_)" fill="none" stroke="#4C4C4C" stroke-width="1.4" stroke-miterlimit="10" d="M199.2,66.5
		c0,150.3,49.7,57.8,53.6,183.5"/>
	<polygon clip-path="url(#SVGID_2_)" fill-rule="evenodd" clip-rule="evenodd" fill="#4C4C4C" points="253.1,266.9 258.2,250.6 
		247.4,250.8 	"/>
	<path clip-path="url(#SVGID_2_)" fill="none" stroke="#FFFFFF" stroke-width="1.4" stroke-miterlimit="10" d="M254.4,476.3
		c0,83.8-48.1,35.2-55,95.9"/>
	<polygon clip-path="url(#SVGID_2_)" fill-rule="evenodd" clip-rule="evenodd" fill="#FFFFFF" points="198.7,588.1 204.9,572.3 
		194.1,571.7 	"/>
	<path clip-path="url(#SVGID_2_)" fill="none" stroke="#4C4C4C" stroke-width="1.4" stroke-miterlimit="10" d="M253,474.9
		c0,83.8-48.1,35.1-55,95.899"/>
	<polygon clip-path="url(#SVGID_2_)" fill-rule="evenodd" clip-rule="evenodd" fill="#4C4C4C" points="197.2,586.7 203.5,570.8 
		192.7,570.3 	"/>
	<polygon clip-path="url(#SVGID_2_)" fill-rule="evenodd" clip-rule="evenodd" fill="#FF6633" points="164.5,349.4 131.7,354.8 
		154,329.6 143.1,328.5 116.6,364.9 148.1,359.6 125.7,386.3 122.1,375.1 114.4,405.7 139.9,397 130.7,392.2 	"/>
	<path clip-path="url(#SVGID_2_)" fill-rule="evenodd" clip-rule="evenodd" fill="#FFFFFF" d="M413.1,124.3
		c-7.699,0-15.5,7.7-15.5,15.4V317c0,7.7,7.801,15.4,15.5,15.4H474.7c7.8,0,15.5-7.7,15.5-15.4V139.7c0-7.7-7.7-15.4-15.5-15.4
		H413.1z"/>
	
		<path clip-path="url(#SVGID_2_)" fill="none" stroke="#FF6633" stroke-width="2.83" stroke-linejoin="round" stroke-miterlimit="10" d="
		M413.1,124.3c-7.699,0-15.5,7.7-15.5,15.4V317c0,7.7,7.801,15.4,15.5,15.4H474.7c7.8,0,15.5-7.7,15.5-15.4V139.7
		c0-7.7-7.7-15.4-15.5-15.4H413.1z"/>
	
		<path clip-path="url(#SVGID_2_)" fill="none" stroke="#FF6633" stroke-width="2.83" stroke-linejoin="round" stroke-miterlimit="10" d="
		M397.6,124.3L397.6,124.3z"/>
	
		<path clip-path="url(#SVGID_2_)" fill="none" stroke="#FF6633" stroke-width="2.83" stroke-linejoin="round" stroke-miterlimit="10" d="
		M490.2,332.4L490.2,332.4z"/>
	<path clip-path="url(#SVGID_2_)" fill-rule="evenodd" clip-rule="evenodd" fill="#FFFFFF" d="M528.6,336.2
		c-7.699,0-15.399,7.7-15.399,15.399V528.9c0,7.699,7.7,15.399,15.399,15.399h61.7c7.7,0,15.4-7.7,15.4-15.399V351.6
		c0-7.699-7.7-15.399-15.4-15.399H528.6z"/>
	
		<path clip-path="url(#SVGID_2_)" fill="none" stroke="#FF6633" stroke-width="2.83" stroke-linejoin="round" stroke-miterlimit="10" d="
		M528.6,336.2c-7.699,0-15.399,7.7-15.399,15.399V528.9c0,7.699,7.7,15.399,15.399,15.399h61.7c7.7,0,15.4-7.7,15.4-15.399V351.6
		c0-7.699-7.7-15.399-15.4-15.399H528.6z"/>
	
		<path clip-path="url(#SVGID_2_)" fill="none" stroke="#FF6633" stroke-width="2.83" stroke-linejoin="round" stroke-miterlimit="10" d="
		M513.2,336.2L513.2,336.2z"/>
	
		<path clip-path="url(#SVGID_2_)" fill="none" stroke="#FF6633" stroke-width="2.83" stroke-linejoin="round" stroke-miterlimit="10" d="
		M605.7,544.3L605.7,544.3z"/>
	<path clip-path="url(#SVGID_2_)" fill-rule="evenodd" clip-rule="evenodd" fill="#FFFFFF" d="M505.6,12.6c26.2,0,46.2,11.7,46.2,27
		c0,15.3-20,26.9-46.2,26.9c-26.3,0-46.3-11.6-46.3-26.9C459.3,24.3,479.3,12.6,505.6,12.6z"/>
	
		<path clip-path="url(#SVGID_2_)" fill="none" stroke="#4C4C4C" stroke-width="1.415" stroke-linejoin="round" stroke-miterlimit="10" d="
		M505.6,12.6c26.2,0,46.2,11.7,46.2,27c0,15.3-20,26.9-46.2,26.9c-26.3,0-46.3-11.6-46.3-26.9C459.3,24.3,479.3,12.6,505.6,12.6z"/>
	
		<path clip-path="url(#SVGID_2_)" fill="none" stroke="#4C4C4C" stroke-width="1.415" stroke-linejoin="round" stroke-miterlimit="10" d="
		M459.3,12.6L459.3,12.6z"/>
	
		<path clip-path="url(#SVGID_2_)" fill="none" stroke="#4C4C4C" stroke-width="1.415" stroke-linejoin="round" stroke-miterlimit="10" d="
		M551.8,66.6L551.8,66.6z"/>
	<path clip-path="url(#SVGID_2_)" d="M498.326,43.624c0,0.345-0.059,0.654-0.176,0.928s-0.276,0.516-0.479,0.728
		c-0.202,0.212-0.437,0.393-0.703,0.542c-0.267,0.15-0.552,0.273-0.854,0.371s-0.613,0.169-0.933,0.215
		c-0.319,0.046-0.632,0.068-0.938,0.068c-0.664,0-1.274-0.029-1.831-0.088s-1.102-0.153-1.636-0.283v-1.563
		c0.573,0.163,1.143,0.287,1.709,0.371c0.566,0.085,1.13,0.127,1.689,0.127c0.813,0,1.416-0.11,1.807-0.332
		c0.391-0.221,0.586-0.537,0.586-0.947c0-0.176-0.031-0.333-0.093-0.474c-0.062-0.14-0.174-0.273-0.337-0.4
		s-0.415-0.259-0.757-0.396s-0.809-0.293-1.401-0.469c-0.442-0.13-0.852-0.278-1.226-0.444s-0.698-0.363-0.972-0.591
		c-0.273-0.228-0.488-0.495-0.645-0.801c-0.156-0.306-0.234-0.667-0.234-1.084c0-0.273,0.063-0.573,0.19-0.898
		c0.127-0.325,0.344-0.628,0.649-0.908c0.306-0.28,0.72-0.513,1.24-0.698s1.172-0.278,1.953-0.278c0.384,0,0.811,0.021,1.279,0.063
		c0.469,0.042,0.957,0.116,1.465,0.22v1.514c-0.534-0.13-1.04-0.226-1.519-0.288c-0.479-0.062-0.894-0.093-1.245-0.093
		c-0.423,0-0.779,0.033-1.069,0.098c-0.29,0.065-0.524,0.155-0.703,0.269c-0.179,0.114-0.308,0.248-0.386,0.4
		c-0.078,0.153-0.117,0.317-0.117,0.493s0.034,0.335,0.103,0.479c0.068,0.144,0.195,0.282,0.381,0.415
		c0.186,0.134,0.444,0.267,0.776,0.4c0.332,0.134,0.765,0.278,1.299,0.435c0.579,0.169,1.067,0.347,1.465,0.532
		s0.72,0.393,0.967,0.62c0.247,0.228,0.425,0.485,0.532,0.771C498.272,42.934,498.326,43.26,498.326,43.624z M509.677,39.991h-8.398
		v-1.436h8.398V39.991z M509.677,43.39h-8.398v-1.436h8.398V43.39z M521.196,39.923c0,0.977-0.098,1.867-0.293,2.671
		c-0.195,0.804-0.491,1.494-0.889,2.07c-0.396,0.576-0.89,1.022-1.479,1.338c-0.589,0.316-1.28,0.474-2.075,0.474
		c-0.684,0-1.305-0.128-1.865-0.386c-0.56-0.257-1.038-0.652-1.436-1.187c-0.396-0.534-0.703-1.214-0.918-2.041
		c-0.215-0.827-0.322-1.807-0.322-2.939c0-0.977,0.1-1.868,0.298-2.676c0.199-0.807,0.495-1.499,0.889-2.075
		c0.395-0.576,0.888-1.022,1.479-1.338c0.593-0.315,1.283-0.474,2.07-0.474c0.684,0,1.306,0.129,1.865,0.386
		c0.561,0.257,1.039,0.654,1.436,1.191c0.397,0.537,0.703,1.219,0.918,2.046C521.089,37.811,521.196,38.79,521.196,39.923z
		 M513.638,39.864c0,0.202,0.002,0.404,0.005,0.605c0.004,0.202,0.015,0.397,0.034,0.586l5.4-3.994
		c-0.098-0.332-0.221-0.635-0.371-0.908c-0.149-0.273-0.328-0.509-0.537-0.708c-0.208-0.198-0.445-0.353-0.713-0.464
		c-0.267-0.11-0.566-0.166-0.898-0.166c-0.442,0-0.845,0.107-1.206,0.322s-0.669,0.536-0.923,0.962
		c-0.254,0.427-0.449,0.954-0.586,1.582C513.706,38.31,513.638,39.038,513.638,39.864z M519.478,39.981
		c0-0.221-0.008-0.441-0.024-0.659c-0.016-0.218-0.034-0.431-0.054-0.64l-5.4,4.014c0.098,0.339,0.222,0.651,0.371,0.938
		c0.15,0.287,0.331,0.532,0.542,0.737c0.212,0.205,0.453,0.365,0.723,0.479c0.271,0.114,0.578,0.171,0.923,0.171
		c0.443,0,0.845-0.107,1.206-0.322s0.669-0.534,0.923-0.957c0.254-0.423,0.449-0.949,0.586-1.577
		C519.409,41.536,519.478,40.809,519.478,39.981z"/>
	<path clip-path="url(#SVGID_2_)" fill-rule="evenodd" clip-rule="evenodd" fill="#FFFFFF" d="M443.9,124.3
		c26.199,0,46.199,11.7,46.199,27c0,15.3-20,27-46.199,27c-26.2,0-46.301-11.7-46.301-27C397.6,136,417.7,124.3,443.9,124.3z"/>
	
		<path clip-path="url(#SVGID_2_)" fill="none" stroke="#4C4C4C" stroke-width="1.415" stroke-linejoin="round" stroke-miterlimit="10" d="
		M443.9,124.3c26.199,0,46.199,11.7,46.199,27c0,15.3-20,27-46.199,27c-26.2,0-46.301-11.7-46.301-27
		C397.6,136,417.7,124.3,443.9,124.3z"/>
	
		<path clip-path="url(#SVGID_2_)" fill="none" stroke="#4C4C4C" stroke-width="1.415" stroke-linejoin="round" stroke-miterlimit="10" d="
		M397.6,124.3L397.6,124.3z"/>
	
		<path clip-path="url(#SVGID_2_)" fill="none" stroke="#4C4C4C" stroke-width="1.415" stroke-linejoin="round" stroke-miterlimit="10" d="
		M490.2,178.3L490.2,178.3z"/>
	<path clip-path="url(#SVGID_2_)" d="M435.262,158l-0.039-1.318c-0.534,0.527-1.076,0.908-1.626,1.143
		c-0.551,0.234-1.128,0.352-1.733,0.352c-0.561,0-1.039-0.072-1.436-0.215c-0.397-0.143-0.725-0.34-0.981-0.591
		c-0.258-0.25-0.446-0.545-0.566-0.884c-0.121-0.338-0.181-0.707-0.181-1.104c0-0.983,0.366-1.753,1.099-2.31
		s1.814-0.835,3.247-0.835h2.031v-0.859c0-0.58-0.186-1.043-0.557-1.392s-0.938-0.522-1.699-0.522c-0.554,0-1.099,0.062-1.636,0.186
		s-1.093,0.299-1.665,0.527v-1.533c0.215-0.078,0.454-0.155,0.718-0.229s0.542-0.142,0.835-0.2s0.599-0.106,0.918-0.142
		c0.318-0.036,0.641-0.054,0.967-0.054c0.592,0,1.126,0.065,1.602,0.195c0.475,0.13,0.877,0.329,1.206,0.596
		c0.328,0.267,0.581,0.602,0.757,1.006s0.264,0.879,0.264,1.426V158H435.262z M435.076,153.537h-2.158
		c-0.424,0-0.788,0.042-1.094,0.127c-0.307,0.084-0.557,0.205-0.752,0.361s-0.341,0.343-0.435,0.562
		c-0.095,0.218-0.142,0.464-0.142,0.737c0,0.189,0.029,0.37,0.088,0.542s0.152,0.326,0.283,0.459
		c0.13,0.133,0.299,0.239,0.508,0.317c0.208,0.078,0.462,0.117,0.762,0.117c0.391,0,0.838-0.119,1.343-0.356
		c0.504-0.238,1.036-0.614,1.597-1.128V153.537z M448.077,151.691h-8.398v-1.436h8.398V151.691z M448.077,155.09h-8.398v-1.436
		h8.398V155.09z M458.686,155.324c0,0.345-0.059,0.654-0.176,0.928s-0.276,0.516-0.479,0.728c-0.201,0.211-0.436,0.392-0.703,0.542
		c-0.267,0.15-0.552,0.273-0.854,0.371s-0.613,0.169-0.933,0.215c-0.318,0.045-0.631,0.068-0.938,0.068
		c-0.664,0-1.274-0.029-1.831-0.088s-1.102-0.153-1.636-0.283v-1.563c0.573,0.163,1.143,0.287,1.709,0.371s1.13,0.127,1.689,0.127
		c0.814,0,1.416-0.111,1.807-0.332s0.586-0.537,0.586-0.947c0-0.176-0.03-0.333-0.093-0.474c-0.062-0.14-0.174-0.273-0.337-0.4
		c-0.162-0.127-0.415-0.259-0.757-0.396s-0.809-0.293-1.401-0.469c-0.442-0.13-0.851-0.278-1.226-0.444
		c-0.374-0.166-0.698-0.363-0.972-0.591s-0.488-0.495-0.645-0.801s-0.234-0.667-0.234-1.084c0-0.273,0.063-0.573,0.19-0.898
		s0.344-0.628,0.649-0.908c0.307-0.28,0.72-0.513,1.24-0.698c0.521-0.186,1.172-0.278,1.953-0.278c0.385,0,0.811,0.021,1.279,0.063
		s0.957,0.116,1.465,0.22v1.514c-0.533-0.13-1.04-0.226-1.519-0.288s-0.894-0.093-1.245-0.093c-0.423,0-0.779,0.033-1.069,0.098
		c-0.289,0.065-0.523,0.155-0.703,0.269c-0.179,0.114-0.308,0.248-0.386,0.4s-0.117,0.317-0.117,0.493s0.034,0.335,0.103,0.479
		s0.195,0.282,0.381,0.415s0.444,0.267,0.776,0.4s0.766,0.278,1.299,0.435c0.58,0.169,1.068,0.347,1.465,0.532
		c0.397,0.186,0.72,0.392,0.967,0.62c0.248,0.228,0.425,0.485,0.532,0.771S458.686,154.959,458.686,155.324z"/>
	<path clip-path="url(#SVGID_2_)" fill-rule="evenodd" clip-rule="evenodd" fill="#FFFFFF" d="M443.9,201.3
		c26.199,0,46.199,11.7,46.199,27c0,15.3-20,27-46.199,27c-26.2,0-46.301-11.7-46.301-27C397.6,213,417.7,201.3,443.9,201.3z"/>
	
		<path clip-path="url(#SVGID_2_)" fill="none" stroke="#4C4C4C" stroke-width="1.415" stroke-linejoin="round" stroke-miterlimit="10" d="
		M443.9,201.3c26.199,0,46.199,11.7,46.199,27c0,15.3-20,27-46.199,27c-26.2,0-46.301-11.7-46.301-27
		C397.6,213,417.7,201.3,443.9,201.3z"/>
	
		<path clip-path="url(#SVGID_2_)" fill="none" stroke="#4C4C4C" stroke-width="1.415" stroke-linejoin="round" stroke-miterlimit="10" d="
		M397.6,201.3L397.6,201.3z"/>
	
		<path clip-path="url(#SVGID_2_)" fill="none" stroke="#4C4C4C" stroke-width="1.415" stroke-linejoin="round" stroke-miterlimit="10" d="
		M490.1,255.3L490.1,255.3z"/>
	<path clip-path="url(#SVGID_2_)" d="M421.202,226.602h-2.9v-1.406h4.619v8.389h2.92V235h-7.861v-1.416h3.223V226.602z
		 M421.798,221.084c0.188,0,0.364,0.034,0.527,0.103s0.305,0.165,0.425,0.288s0.215,0.265,0.283,0.425s0.103,0.333,0.103,0.522
		c0,0.182-0.034,0.355-0.103,0.518s-0.163,0.306-0.283,0.43s-0.262,0.22-0.425,0.288s-0.339,0.103-0.527,0.103
		s-0.364-0.034-0.527-0.103s-0.305-0.165-0.425-0.288s-0.215-0.267-0.283-0.43s-0.103-0.335-0.103-0.518
		c0-0.189,0.034-0.363,0.103-0.522s0.163-0.301,0.283-0.425s0.262-0.22,0.425-0.288S421.609,221.084,421.798,221.084z
		 M428.843,225.195h1.514l0.068,1.582c0.286-0.338,0.563-0.62,0.83-0.845c0.267-0.225,0.528-0.405,0.786-0.542
		c0.257-0.137,0.519-0.233,0.786-0.288c0.267-0.055,0.543-0.083,0.83-0.083c1.009,0,1.772,0.298,2.29,0.894s0.776,1.493,0.776,2.69
		V235h-1.699v-6.26c0-0.768-0.144-1.336-0.43-1.704c-0.287-0.368-0.713-0.552-1.279-0.552c-0.209,0-0.412,0.031-0.61,0.093
		c-0.199,0.062-0.405,0.169-0.62,0.322s-0.448,0.36-0.698,0.62c-0.251,0.26-0.532,0.586-0.845,0.977V235h-1.699V225.195z
		 M447.439,234.639c-0.442,0.169-0.896,0.294-1.362,0.376s-0.945,0.122-1.44,0.122c-1.55,0-2.742-0.42-3.579-1.26
		s-1.255-2.067-1.255-3.682c0-0.775,0.12-1.478,0.361-2.109s0.579-1.172,1.016-1.621s0.957-0.796,1.563-1.04
		s1.272-0.366,2.002-0.366c0.508,0,0.983,0.036,1.426,0.107s0.866,0.189,1.27,0.352v1.621c-0.423-0.221-0.854-0.382-1.294-0.483
		s-0.894-0.151-1.362-0.151c-0.437,0-0.848,0.083-1.235,0.249s-0.728,0.405-1.021,0.718s-0.524,0.693-0.693,1.143
		s-0.254,0.957-0.254,1.523c0,1.185,0.288,2.072,0.864,2.661s1.375,0.884,2.397,0.884c0.462,0,0.91-0.052,1.343-0.156
		s0.852-0.26,1.255-0.469V234.639z M468.181,235l-0.039-1.318c-0.533,0.527-1.075,0.908-1.626,1.143
		c-0.55,0.234-1.128,0.352-1.733,0.352c-0.56,0-1.038-0.072-1.436-0.215c-0.396-0.143-0.724-0.34-0.981-0.591
		c-0.257-0.25-0.445-0.545-0.566-0.884c-0.12-0.338-0.181-0.707-0.181-1.104c0-0.983,0.366-1.753,1.099-2.31
		s1.815-0.835,3.247-0.835h2.031v-0.859c0-0.58-0.186-1.043-0.557-1.392s-0.938-0.522-1.699-0.522c-0.553,0-1.099,0.062-1.636,0.186
		s-1.092,0.299-1.665,0.527v-1.533c0.215-0.078,0.454-0.155,0.718-0.229s0.542-0.142,0.835-0.2s0.6-0.106,0.918-0.142
		c0.319-0.036,0.642-0.054,0.967-0.054c0.593,0,1.127,0.065,1.602,0.195c0.476,0.13,0.878,0.329,1.206,0.596
		c0.329,0.267,0.581,0.602,0.757,1.006s0.264,0.879,0.264,1.426V235H468.181z M467.995,230.537h-2.158
		c-0.423,0-0.787,0.042-1.094,0.127c-0.306,0.084-0.557,0.205-0.752,0.361s-0.34,0.343-0.435,0.562
		c-0.094,0.218-0.142,0.464-0.142,0.737c0,0.189,0.029,0.37,0.088,0.542s0.153,0.326,0.283,0.459c0.131,0.133,0.3,0.239,0.508,0.317
		c0.209,0.078,0.463,0.117,0.762,0.117c0.391,0,0.839-0.119,1.343-0.356c0.505-0.238,1.037-0.614,1.597-1.128V230.537z"/>
	<path clip-path="url(#SVGID_2_)" fill-rule="evenodd" clip-rule="evenodd" fill="#FFFFFF" d="M443.8,278.4
		c26.2,0,46.3,11.7,46.3,27c0,15.3-20.1,26.9-46.3,26.9s-46.2-11.6-46.2-26.9C397.6,290.1,417.6,278.4,443.8,278.4z"/>
	
		<path clip-path="url(#SVGID_2_)" fill="none" stroke="#4C4C4C" stroke-width="1.415" stroke-linejoin="round" stroke-miterlimit="10" d="
		M443.8,278.4c26.2,0,46.3,11.7,46.3,27c0,15.3-20.1,26.9-46.3,26.9s-46.2-11.6-46.2-26.9C397.6,290.1,417.6,278.4,443.8,278.4z"/>
	
		<path clip-path="url(#SVGID_2_)" fill="none" stroke="#4C4C4C" stroke-width="1.415" stroke-linejoin="round" stroke-miterlimit="10" d="
		M397.6,278.4L397.6,278.4z"/>
	
		<path clip-path="url(#SVGID_2_)" fill="none" stroke="#4C4C4C" stroke-width="1.415" stroke-linejoin="round" stroke-miterlimit="10" d="
		M490.1,332.4L490.1,332.4z"/>
	<path clip-path="url(#SVGID_2_)" d="M436.626,309.424c0,0.345-0.059,0.654-0.176,0.928s-0.276,0.516-0.479,0.728
		s-0.437,0.392-0.703,0.542s-0.552,0.273-0.854,0.371s-0.613,0.169-0.933,0.215c-0.319,0.045-0.632,0.068-0.938,0.068
		c-0.664,0-1.274-0.029-1.831-0.088s-1.102-0.153-1.636-0.283v-1.563c0.573,0.163,1.143,0.287,1.709,0.371s1.13,0.127,1.689,0.127
		c0.813,0,1.416-0.111,1.807-0.332s0.586-0.537,0.586-0.947c0-0.176-0.031-0.333-0.093-0.474s-0.174-0.273-0.337-0.4
		s-0.415-0.259-0.757-0.396s-0.809-0.293-1.401-0.469c-0.442-0.13-0.852-0.278-1.226-0.444s-0.698-0.363-0.972-0.591
		s-0.488-0.495-0.645-0.801s-0.234-0.667-0.234-1.084c0-0.273,0.063-0.573,0.19-0.898s0.344-0.628,0.649-0.908
		s0.72-0.513,1.24-0.698s1.172-0.278,1.953-0.278c0.384,0,0.811,0.021,1.279,0.063s0.957,0.116,1.465,0.22v1.514
		c-0.534-0.13-1.04-0.226-1.519-0.288s-0.894-0.093-1.245-0.093c-0.423,0-0.779,0.033-1.069,0.098s-0.524,0.155-0.703,0.269
		s-0.308,0.248-0.386,0.4s-0.117,0.317-0.117,0.493s0.034,0.335,0.103,0.479s0.195,0.282,0.381,0.415s0.444,0.267,0.776,0.4
		s0.765,0.278,1.299,0.435c0.579,0.169,1.067,0.347,1.465,0.532s0.72,0.392,0.967,0.62s0.425,0.485,0.532,0.771
		S436.626,309.06,436.626,309.424z M447.978,305.792h-8.398v-1.436h8.398V305.792z M447.978,309.19h-8.398v-1.436h8.398V309.19z
		 M457.121,312.1l-0.039-1.318c-0.534,0.527-1.076,0.908-1.626,1.143s-1.128,0.352-1.733,0.352c-0.56,0-1.038-0.072-1.436-0.215
		s-0.725-0.34-0.981-0.591s-0.446-0.545-0.566-0.884s-0.181-0.707-0.181-1.104c0-0.983,0.366-1.753,1.099-2.31
		s1.814-0.835,3.247-0.835h2.031v-0.859c0-0.58-0.186-1.043-0.557-1.392s-0.938-0.522-1.699-0.522c-0.554,0-1.099,0.062-1.636,0.186
		s-1.092,0.299-1.665,0.527v-1.533c0.215-0.078,0.454-0.155,0.718-0.229s0.542-0.142,0.835-0.2s0.599-0.106,0.918-0.142
		s0.642-0.054,0.967-0.054c0.593,0,1.126,0.065,1.602,0.195s0.877,0.329,1.206,0.596s0.581,0.602,0.757,1.006
		s0.264,0.879,0.264,1.426v6.758H457.121z M456.936,307.637h-2.158c-0.423,0-0.788,0.042-1.094,0.127s-0.557,0.205-0.752,0.361
		s-0.34,0.343-0.435,0.562s-0.142,0.464-0.142,0.737c0,0.189,0.029,0.37,0.088,0.542s0.153,0.326,0.283,0.459s0.3,0.239,0.508,0.317
		s0.462,0.117,0.762,0.117c0.391,0,0.838-0.119,1.343-0.356s1.037-0.614,1.597-1.128V307.637z"/>
	<path clip-path="url(#SVGID_2_)" fill="none" stroke="#FFFFFF" stroke-width="1.4" stroke-miterlimit="10" d="M507,67.9
		c0,43.4-45.1,21.4-58.1,43.1"/>
	<polygon clip-path="url(#SVGID_2_)" fill-rule="evenodd" clip-rule="evenodd" fill="#FFFFFF" points="445.4,125.7 454.5,111.4 
		444.1,108.8 	"/>
	<path clip-path="url(#SVGID_2_)" fill="none" stroke="#4C4C4C" stroke-width="1.4" stroke-miterlimit="10" d="M505.6,66.5
		c0,43.4-45.1,21.4-58.199,43.1"/>
	<polygon clip-path="url(#SVGID_2_)" fill-rule="evenodd" clip-rule="evenodd" fill="#4C4C4C" points="443.9,124.3 453.1,110 
		442.7,107.3 	"/>
	<path clip-path="url(#SVGID_2_)" fill="none" stroke="#4C4C4C" stroke-width="1.4" stroke-miterlimit="10" d="M443.9,178.3
		c0,17.3,0,6.1,0,7.7"/>
	<polygon clip-path="url(#SVGID_2_)" fill-rule="evenodd" clip-rule="evenodd" fill="#4C4C4C" points="443.9,201.4 449.3,185.2 
		438.5,185.2 	"/>
	<path clip-path="url(#SVGID_2_)" fill="none" stroke="#4C4C4C" stroke-width="1.4" stroke-miterlimit="10" d="M443.9,255.3
		c0,17.4,0,6.1,0,7.7"/>
	<polygon clip-path="url(#SVGID_2_)" fill-rule="evenodd" clip-rule="evenodd" fill="#4C4C4C" points="443.8,278.4 449.3,262.3 
		438.5,262.2 	"/>
	<path clip-path="url(#SVGID_2_)" fill-rule="evenodd" clip-rule="evenodd" fill="#FFFFFF" d="M505.4,586.7
		c33.899,0,59.8,11.6,59.8,26.899c0,15.301-25.9,27-59.8,27c-33.801,0-59.7-11.699-59.7-27C445.7,598.3,471.6,586.7,505.4,586.7z"/>
	
		<path clip-path="url(#SVGID_2_)" fill="none" stroke="#4C4C4C" stroke-width="1.415" stroke-linejoin="round" stroke-miterlimit="10" d="
		M505.4,586.7c33.899,0,59.8,11.6,59.8,26.899c0,15.301-25.9,27-59.8,27c-33.801,0-59.7-11.699-59.7-27
		C445.7,598.3,471.6,586.7,505.4,586.7z"/>
	
		<path clip-path="url(#SVGID_2_)" fill="none" stroke="#4C4C4C" stroke-width="1.415" stroke-linejoin="round" stroke-miterlimit="10" d="
		M445.7,586.7L445.7,586.7z"/>
	
		<path clip-path="url(#SVGID_2_)" fill="none" stroke="#4C4C4C" stroke-width="1.415" stroke-linejoin="round" stroke-miterlimit="10" d="
		M565.2,640.6L565.2,640.6z"/>
	<path clip-path="url(#SVGID_2_)" d="M476.741,615.322c0,0.872-0.122,1.634-0.366,2.285c-0.244,0.65-0.581,1.191-1.011,1.621
		s-0.938,0.752-1.523,0.967s-1.221,0.322-1.904,0.322c-0.313,0-0.623-0.017-0.933-0.049c-0.31-0.033-0.623-0.088-0.942-0.166v4.102
		h-1.699v-13.809h1.514l0.107,1.641c0.488-0.671,1.009-1.142,1.563-1.411c0.554-0.271,1.152-0.405,1.797-0.405
		c0.56,0,1.052,0.117,1.475,0.352s0.778,0.564,1.064,0.991c0.286,0.426,0.501,0.94,0.645,1.543
		C476.67,613.907,476.741,614.58,476.741,615.322z M475.003,615.4c0-0.515-0.037-0.986-0.112-1.416s-0.193-0.798-0.356-1.104
		c-0.163-0.307-0.371-0.546-0.625-0.718c-0.254-0.173-0.557-0.259-0.908-0.259c-0.215,0-0.433,0.034-0.654,0.103
		s-0.451,0.182-0.688,0.342c-0.237,0.159-0.488,0.371-0.752,0.635s-0.545,0.591-0.845,0.981v4.756
		c0.313,0.13,0.642,0.232,0.986,0.308c0.345,0.074,0.684,0.112,1.016,0.112c0.918,0,1.638-0.312,2.158-0.933
		C474.742,617.586,475.003,616.65,475.003,615.4z M479.743,610.596h1.553l0.049,1.807c0.579-0.697,1.15-1.201,1.714-1.514
		c0.563-0.313,1.131-0.469,1.704-0.469c1.016,0,1.785,0.328,2.31,0.986c0.523,0.657,0.767,1.634,0.728,2.93h-1.719
		c0.02-0.859-0.106-1.483-0.376-1.87c-0.271-0.388-0.666-0.581-1.187-0.581c-0.229,0-0.458,0.04-0.688,0.122
		c-0.231,0.081-0.469,0.211-0.713,0.391c-0.244,0.179-0.503,0.408-0.776,0.688c-0.273,0.279-0.566,0.618-0.879,1.016v6.299h-1.719
		V610.596z M493.762,612.002h-2.9v-1.406h4.619v8.389h2.92v1.416h-7.861v-1.416h3.223V612.002z M494.357,606.484
		c0.189,0,0.365,0.034,0.527,0.103c0.163,0.068,0.305,0.164,0.425,0.288c0.121,0.123,0.215,0.265,0.283,0.425
		c0.068,0.159,0.103,0.333,0.103,0.522c0,0.182-0.034,0.354-0.103,0.518c-0.068,0.162-0.162,0.306-0.283,0.43
		c-0.12,0.123-0.262,0.22-0.425,0.288c-0.162,0.068-0.338,0.103-0.527,0.103c-0.188,0-0.364-0.034-0.527-0.103
		c-0.162-0.068-0.304-0.165-0.425-0.288c-0.12-0.124-0.215-0.268-0.283-0.43c-0.068-0.163-0.103-0.336-0.103-0.518
		c0-0.189,0.034-0.363,0.103-0.522c0.068-0.16,0.163-0.302,0.283-0.425c0.121-0.124,0.263-0.22,0.425-0.288
		C493.993,606.519,494.169,606.484,494.357,606.484z M501.402,610.596h1.514l0.068,1.582c0.286-0.339,0.563-0.62,0.83-0.845
		c0.267-0.225,0.528-0.405,0.786-0.542c0.257-0.137,0.519-0.233,0.786-0.288c0.267-0.056,0.543-0.083,0.83-0.083
		c1.009,0,1.772,0.298,2.29,0.894s0.776,1.492,0.776,2.69v6.396h-1.699v-6.26c0-0.769-0.144-1.337-0.43-1.704
		c-0.287-0.368-0.713-0.552-1.279-0.552c-0.209,0-0.412,0.03-0.61,0.093c-0.199,0.062-0.405,0.169-0.62,0.322
		c-0.215,0.152-0.448,0.359-0.698,0.62c-0.251,0.26-0.532,0.586-0.845,0.977v6.504h-1.699V610.596z M520.383,620.264
		c-0.385,0.098-0.781,0.167-1.191,0.21c-0.41,0.042-0.827,0.063-1.25,0.063c-1.23,0-2.148-0.278-2.754-0.835
		s-0.908-1.411-0.908-2.563v-5.117h-2.744v-1.426h2.744V607.9l1.699-0.439v3.135h4.404v1.426h-4.404v4.98
		c0,0.703,0.187,1.229,0.562,1.577c0.374,0.348,0.926,0.522,1.655,0.522c0.313,0,0.654-0.024,1.025-0.073s0.758-0.126,1.162-0.229
		V620.264z"/>
	<path clip-path="url(#SVGID_2_)" d="M542.306,617.725c0,0.345-0.059,0.654-0.176,0.928s-0.276,0.516-0.479,0.728
		c-0.201,0.211-0.436,0.392-0.703,0.542c-0.267,0.149-0.552,0.273-0.854,0.371s-0.613,0.169-0.933,0.215
		c-0.318,0.045-0.631,0.068-0.938,0.068c-0.664,0-1.274-0.029-1.831-0.088s-1.102-0.153-1.636-0.283v-1.563
		c0.573,0.162,1.143,0.286,1.709,0.371c0.566,0.084,1.13,0.127,1.689,0.127c0.814,0,1.416-0.111,1.807-0.332
		c0.391-0.222,0.586-0.537,0.586-0.947c0-0.176-0.03-0.334-0.093-0.474c-0.062-0.141-0.174-0.273-0.337-0.4
		c-0.162-0.127-0.415-0.259-0.757-0.396s-0.809-0.293-1.401-0.469c-0.442-0.131-0.851-0.278-1.226-0.444
		c-0.374-0.166-0.698-0.363-0.972-0.591c-0.273-0.229-0.488-0.495-0.645-0.801c-0.156-0.307-0.234-0.668-0.234-1.084
		c0-0.273,0.063-0.573,0.19-0.898c0.127-0.326,0.344-0.629,0.649-0.908c0.307-0.28,0.72-0.513,1.24-0.698
		c0.521-0.186,1.172-0.278,1.953-0.278c0.385,0,0.811,0.021,1.279,0.063c0.469,0.042,0.957,0.115,1.465,0.22v1.514
		c-0.533-0.131-1.04-0.227-1.519-0.288c-0.479-0.063-0.894-0.093-1.245-0.093c-0.423,0-0.779,0.032-1.069,0.098
		c-0.289,0.064-0.523,0.154-0.703,0.269c-0.179,0.113-0.308,0.247-0.386,0.4c-0.078,0.152-0.117,0.317-0.117,0.493
		s0.034,0.335,0.103,0.479c0.068,0.143,0.195,0.281,0.381,0.415c0.186,0.133,0.444,0.267,0.776,0.4
		c0.332,0.133,0.766,0.278,1.299,0.435c0.58,0.169,1.068,0.347,1.465,0.532c0.397,0.186,0.72,0.392,0.967,0.62
		c0.248,0.228,0.425,0.484,0.532,0.771C542.252,617.034,542.306,617.359,542.306,617.725z"/>
	<path clip-path="url(#SVGID_2_)" fill="none" stroke="#FFFFFF" stroke-width="1.4" stroke-miterlimit="10" d="M445.2,333.8
		c0,190.7,57.899,71.2,61.5,237.2"/>
	<polygon clip-path="url(#SVGID_2_)" fill-rule="evenodd" clip-rule="evenodd" fill="#FFFFFF" points="506.9,588.1 512.1,571.9 
		501.4,572 	"/>
	<path clip-path="url(#SVGID_2_)" fill="none" stroke="#4C4C4C" stroke-width="1.4" stroke-miterlimit="10" d="M443.8,332.3
		c0,190.8,57.9,71.3,61.5,237.3"/>
	<polygon clip-path="url(#SVGID_2_)" fill-rule="evenodd" clip-rule="evenodd" fill="#4C4C4C" points="505.5,586.7 510.7,570.5 
		499.9,570.6 	"/>
	<path clip-path="url(#SVGID_2_)" fill-rule="evenodd" clip-rule="evenodd" fill="#FFFFFF" d="M559.4,336.2
		c26.3,0,46.3,11.7,46.3,27s-20,27-46.3,27c-26.2,0-46.2-11.7-46.2-27S533.2,336.2,559.4,336.2z"/>
	
		<path clip-path="url(#SVGID_2_)" fill="none" stroke="#4C4C4C" stroke-width="1.415" stroke-linejoin="round" stroke-miterlimit="10" d="
		M559.4,336.2c26.3,0,46.3,11.7,46.3,27s-20,27-46.3,27c-26.2,0-46.2-11.7-46.2-27S533.2,336.2,559.4,336.2z"/>
	
		<path clip-path="url(#SVGID_2_)" fill="none" stroke="#4C4C4C" stroke-width="1.415" stroke-linejoin="round" stroke-miterlimit="10" d="
		M513.2,336.2L513.2,336.2z"/>
	
		<path clip-path="url(#SVGID_2_)" fill="none" stroke="#4C4C4C" stroke-width="1.415" stroke-linejoin="round" stroke-miterlimit="10" d="
		M605.7,390.2L605.7,390.2z"/>
	<path clip-path="url(#SVGID_2_)" d="M552.842,364.822c0,0.813-0.112,1.541-0.337,2.183c-0.225,0.641-0.544,1.185-0.957,1.631
		c-0.414,0.445-0.917,0.787-1.509,1.025c-0.593,0.237-1.26,0.356-2.002,0.356c-0.58,0-1.172-0.056-1.777-0.166
		c-0.605-0.111-1.205-0.287-1.797-0.527v-13.223h1.699v3.799l-0.078,1.816c0.488-0.658,1.011-1.122,1.567-1.392
		c0.557-0.271,1.153-0.405,1.792-0.405c0.56,0,1.051,0.117,1.475,0.352c0.423,0.234,0.777,0.564,1.064,0.991
		c0.286,0.426,0.501,0.94,0.645,1.543C552.77,363.407,552.842,364.08,552.842,364.822z M551.104,364.9
		c0-0.515-0.038-0.986-0.112-1.416c-0.075-0.43-0.194-0.798-0.356-1.104c-0.163-0.307-0.371-0.546-0.625-0.718
		c-0.254-0.173-0.557-0.259-0.908-0.259c-0.215,0-0.434,0.034-0.654,0.103c-0.222,0.068-0.451,0.182-0.688,0.342
		c-0.238,0.159-0.488,0.371-0.752,0.635s-0.546,0.591-0.845,0.981v4.756c0.332,0.13,0.67,0.232,1.016,0.308
		c0.345,0.074,0.674,0.112,0.986,0.112c0.391,0,0.763-0.063,1.118-0.186c0.354-0.124,0.667-0.331,0.938-0.62
		c0.27-0.29,0.484-0.674,0.645-1.152C551.023,366.204,551.104,365.609,551.104,364.9z M563.577,363.592h-8.398v-1.436h8.398V363.592
		z M563.577,366.99h-8.398v-1.436h8.398V366.99z M574.286,367.225c0,0.345-0.059,0.654-0.176,0.928s-0.277,0.516-0.479,0.728
		c-0.202,0.211-0.437,0.392-0.703,0.542c-0.268,0.149-0.552,0.273-0.854,0.371s-0.614,0.169-0.933,0.215
		c-0.319,0.045-0.632,0.068-0.938,0.068c-0.664,0-1.274-0.029-1.831-0.088s-1.103-0.153-1.636-0.283v-1.563
		c0.572,0.162,1.143,0.286,1.709,0.371c0.566,0.084,1.129,0.127,1.689,0.127c0.813,0,1.416-0.111,1.807-0.332
		c0.391-0.222,0.586-0.537,0.586-0.947c0-0.176-0.031-0.334-0.093-0.474c-0.063-0.141-0.175-0.273-0.337-0.4
		c-0.163-0.127-0.415-0.259-0.757-0.396s-0.81-0.293-1.401-0.469c-0.443-0.131-0.852-0.278-1.226-0.444
		c-0.375-0.166-0.698-0.363-0.972-0.591c-0.273-0.229-0.488-0.495-0.645-0.801c-0.156-0.307-0.234-0.668-0.234-1.084
		c0-0.273,0.063-0.573,0.19-0.898c0.127-0.326,0.343-0.629,0.649-0.908c0.306-0.28,0.719-0.513,1.24-0.698
		c0.521-0.186,1.172-0.278,1.953-0.278c0.384,0,0.811,0.021,1.279,0.063c0.469,0.042,0.957,0.115,1.465,0.22v1.514
		c-0.534-0.131-1.04-0.227-1.519-0.288c-0.479-0.063-0.894-0.093-1.245-0.093c-0.424,0-0.78,0.032-1.069,0.098
		c-0.29,0.064-0.524,0.154-0.703,0.269c-0.18,0.113-0.308,0.247-0.386,0.4c-0.078,0.152-0.117,0.317-0.117,0.493
		s0.034,0.335,0.103,0.479c0.068,0.143,0.195,0.281,0.381,0.415c0.186,0.133,0.444,0.267,0.776,0.4
		c0.332,0.133,0.765,0.278,1.299,0.435c0.579,0.169,1.067,0.347,1.465,0.532c0.396,0.186,0.719,0.392,0.967,0.62
		c0.247,0.228,0.425,0.484,0.532,0.771C574.232,366.534,574.286,366.859,574.286,367.225z"/>
	<path clip-path="url(#SVGID_2_)" fill-rule="evenodd" clip-rule="evenodd" fill="#FFFFFF" d="M559.4,413.3
		c26.199,0,46.3,11.601,46.3,26.9s-20.101,27-46.3,27c-26.2,0-46.2-11.7-46.2-27S533.2,413.3,559.4,413.3z"/>
	
		<path clip-path="url(#SVGID_2_)" fill="none" stroke="#4C4C4C" stroke-width="1.415" stroke-linejoin="round" stroke-miterlimit="10" d="
		M559.4,413.3c26.199,0,46.3,11.601,46.3,26.9s-20.101,27-46.3,27c-26.2,0-46.2-11.7-46.2-27S533.2,413.3,559.4,413.3z"/>
	
		<path clip-path="url(#SVGID_2_)" fill="none" stroke="#4C4C4C" stroke-width="1.415" stroke-linejoin="round" stroke-miterlimit="10" d="
		M513.2,413.3L513.2,413.3z"/>
	
		<path clip-path="url(#SVGID_2_)" fill="none" stroke="#4C4C4C" stroke-width="1.415" stroke-linejoin="round" stroke-miterlimit="10" d="
		M605.7,467.2L605.7,467.2z"/>
	<path clip-path="url(#SVGID_2_)" d="M536.702,438.502h-2.9v-1.406h4.619v8.389h2.92v1.416h-7.861v-1.416h3.223V438.502z
		 M537.298,432.984c0.188,0,0.364,0.034,0.527,0.103s0.305,0.164,0.425,0.288c0.121,0.123,0.215,0.265,0.283,0.425
		c0.068,0.159,0.103,0.333,0.103,0.522c0,0.182-0.034,0.354-0.103,0.518c-0.068,0.162-0.162,0.306-0.283,0.43
		c-0.12,0.123-0.262,0.22-0.425,0.288s-0.339,0.103-0.527,0.103s-0.364-0.034-0.527-0.103s-0.304-0.165-0.425-0.288
		c-0.12-0.124-0.215-0.268-0.283-0.43c-0.068-0.163-0.103-0.336-0.103-0.518c0-0.189,0.034-0.363,0.103-0.522
		c0.068-0.16,0.163-0.302,0.283-0.425c0.121-0.124,0.262-0.22,0.425-0.288S537.109,432.984,537.298,432.984z M544.343,437.096h1.514
		l0.068,1.582c0.286-0.339,0.563-0.62,0.83-0.845c0.267-0.225,0.528-0.405,0.786-0.542c0.257-0.137,0.519-0.233,0.786-0.288
		c0.267-0.056,0.543-0.083,0.83-0.083c1.009,0,1.772,0.298,2.29,0.894s0.776,1.492,0.776,2.69v6.396h-1.699v-6.26
		c0-0.769-0.144-1.337-0.43-1.704c-0.287-0.368-0.713-0.552-1.279-0.552c-0.209,0-0.412,0.03-0.61,0.093
		c-0.199,0.062-0.405,0.169-0.62,0.322c-0.215,0.152-0.448,0.359-0.698,0.62c-0.251,0.26-0.532,0.586-0.845,0.977v6.504h-1.699
		V437.096z M563.039,446.539c-0.442,0.169-0.896,0.294-1.362,0.376c-0.465,0.081-0.945,0.122-1.44,0.122
		c-1.549,0-2.742-0.42-3.579-1.26c-0.836-0.84-1.255-2.067-1.255-3.682c0-0.775,0.121-1.479,0.361-2.109
		c0.241-0.632,0.58-1.172,1.016-1.621c0.437-0.449,0.957-0.796,1.563-1.04s1.273-0.366,2.002-0.366c0.508,0,0.983,0.035,1.426,0.107
		c0.443,0.071,0.866,0.188,1.27,0.352v1.621c-0.423-0.222-0.854-0.383-1.294-0.483c-0.439-0.102-0.894-0.151-1.362-0.151
		c-0.436,0-0.848,0.083-1.235,0.249c-0.387,0.166-0.728,0.405-1.021,0.718s-0.523,0.693-0.693,1.143
		c-0.169,0.449-0.254,0.957-0.254,1.523c0,1.185,0.288,2.071,0.864,2.661c0.576,0.589,1.376,0.884,2.397,0.884
		c0.463,0,0.91-0.053,1.343-0.156c0.434-0.104,0.852-0.261,1.255-0.469V446.539z M585.861,441.822c0,0.813-0.112,1.541-0.337,2.183
		c-0.225,0.641-0.544,1.185-0.957,1.631c-0.414,0.445-0.917,0.787-1.509,1.025c-0.593,0.237-1.26,0.356-2.002,0.356
		c-0.58,0-1.172-0.056-1.777-0.166c-0.605-0.111-1.205-0.287-1.797-0.527v-13.223h1.699v3.799l-0.078,1.816
		c0.488-0.658,1.011-1.122,1.567-1.392c0.557-0.271,1.153-0.405,1.792-0.405c0.56,0,1.051,0.117,1.475,0.352
		c0.423,0.234,0.777,0.564,1.064,0.991c0.286,0.426,0.501,0.94,0.645,1.543C585.789,440.407,585.861,441.08,585.861,441.822z
		 M584.123,441.9c0-0.515-0.038-0.986-0.112-1.416c-0.075-0.43-0.194-0.798-0.356-1.104c-0.163-0.307-0.371-0.546-0.625-0.718
		c-0.254-0.173-0.557-0.259-0.908-0.259c-0.215,0-0.434,0.034-0.654,0.103c-0.222,0.068-0.451,0.182-0.688,0.342
		c-0.238,0.159-0.488,0.371-0.752,0.635s-0.546,0.591-0.845,0.981v4.756c0.332,0.13,0.67,0.232,1.016,0.308
		c0.345,0.074,0.674,0.112,0.986,0.112c0.391,0,0.763-0.063,1.118-0.186c0.354-0.124,0.667-0.331,0.938-0.62
		c0.27-0.29,0.484-0.674,0.645-1.152C584.043,443.204,584.123,442.609,584.123,441.9z"/>
	<path clip-path="url(#SVGID_2_)" fill-rule="evenodd" clip-rule="evenodd" fill="#FFFFFF" d="M559.4,490.3
		c26.199,0,46.199,11.601,46.199,26.9s-20,27-46.199,27c-26.2,0-46.2-11.7-46.2-27S533.2,490.3,559.4,490.3z"/>
	
		<path clip-path="url(#SVGID_2_)" fill="none" stroke="#4C4C4C" stroke-width="1.415" stroke-linejoin="round" stroke-miterlimit="10" d="
		M559.4,490.3c26.199,0,46.199,11.601,46.199,26.9s-20,27-46.199,27c-26.2,0-46.2-11.7-46.2-27S533.2,490.3,559.4,490.3z"/>
	
		<path clip-path="url(#SVGID_2_)" fill="none" stroke="#4C4C4C" stroke-width="1.415" stroke-linejoin="round" stroke-miterlimit="10" d="
		M513.2,490.3L513.2,490.3z"/>
	
		<path clip-path="url(#SVGID_2_)" fill="none" stroke="#4C4C4C" stroke-width="1.415" stroke-linejoin="round" stroke-miterlimit="10" d="
		M605.7,544.2L605.7,544.2z"/>
	<path clip-path="url(#SVGID_2_)" d="M552.126,521.324c0,0.345-0.059,0.654-0.176,0.928s-0.276,0.516-0.479,0.728
		s-0.437,0.393-0.703,0.542s-0.552,0.273-0.854,0.371s-0.613,0.169-0.933,0.215s-0.632,0.068-0.938,0.068
		c-0.664,0-1.274-0.029-1.831-0.088s-1.102-0.153-1.636-0.283v-1.563c0.573,0.163,1.143,0.286,1.709,0.371s1.13,0.127,1.689,0.127
		c0.813,0,1.416-0.11,1.807-0.332s0.586-0.537,0.586-0.947c0-0.176-0.03-0.334-0.093-0.474c-0.062-0.14-0.174-0.273-0.337-0.4
		s-0.415-0.259-0.757-0.396s-0.809-0.293-1.401-0.469c-0.442-0.13-0.851-0.278-1.226-0.444c-0.374-0.166-0.698-0.363-0.972-0.591
		s-0.488-0.495-0.645-0.801s-0.234-0.667-0.234-1.084c0-0.273,0.063-0.573,0.19-0.898s0.344-0.628,0.649-0.908
		s0.72-0.513,1.24-0.698s1.172-0.278,1.953-0.278c0.384,0,0.811,0.021,1.279,0.063s0.957,0.115,1.465,0.22v1.514
		c-0.534-0.13-1.04-0.227-1.519-0.288s-0.894-0.093-1.245-0.093c-0.423,0-0.779,0.032-1.069,0.098
		c-0.289,0.065-0.523,0.154-0.703,0.269c-0.179,0.114-0.308,0.247-0.386,0.4s-0.117,0.317-0.117,0.493s0.034,0.335,0.103,0.479
		s0.195,0.281,0.381,0.415s0.444,0.267,0.776,0.4s0.765,0.278,1.299,0.435c0.579,0.169,1.067,0.347,1.465,0.532
		s0.72,0.393,0.967,0.62s0.425,0.485,0.532,0.771S552.126,520.96,552.126,521.324z M563.577,517.691h-8.398v-1.436h8.398V517.691z
		 M563.577,521.09h-8.398v-1.436h8.398V521.09z M574.801,518.922c0,0.813-0.112,1.541-0.337,2.183s-0.543,1.185-0.957,1.631
		c-0.413,0.446-0.916,0.788-1.509,1.025c-0.592,0.237-1.26,0.356-2.002,0.356c-0.579,0-1.172-0.056-1.777-0.166
		s-1.204-0.286-1.797-0.527v-13.223h1.699V514l-0.078,1.816c0.488-0.657,1.011-1.121,1.567-1.392s1.154-0.405,1.792-0.405
		c0.561,0,1.052,0.117,1.475,0.352c0.424,0.234,0.778,0.564,1.064,0.991c0.287,0.427,0.502,0.94,0.645,1.543
		C574.729,517.508,574.801,518.18,574.801,518.922z M573.063,519c0-0.515-0.037-0.986-0.112-1.416
		c-0.074-0.43-0.193-0.798-0.356-1.104c-0.162-0.306-0.371-0.545-0.625-0.718s-0.557-0.259-0.908-0.259
		c-0.215,0-0.433,0.034-0.654,0.103c-0.221,0.068-0.45,0.183-0.688,0.342c-0.237,0.159-0.488,0.371-0.752,0.635
		s-0.545,0.591-0.845,0.981v4.756c0.332,0.13,0.671,0.232,1.016,0.308c0.346,0.075,0.674,0.112,0.986,0.112
		c0.391,0,0.764-0.062,1.118-0.186c0.355-0.124,0.668-0.33,0.938-0.62c0.271-0.29,0.485-0.674,0.645-1.152
		C572.983,520.304,573.063,519.71,573.063,519z"/>
	<path clip-path="url(#SVGID_2_)" fill="none" stroke="#4C4C4C" stroke-width="1.4" stroke-miterlimit="10" d="M559.4,390.2
		c0,17.3,0,6,0,7.7"/>
	<polygon clip-path="url(#SVGID_2_)" fill-rule="evenodd" clip-rule="evenodd" fill="#4C4C4C" points="559.4,413.3 564.8,397.1 
		554.1,397.1 	"/>
	<path clip-path="url(#SVGID_2_)" fill="none" stroke="#4C4C4C" stroke-width="1.4" stroke-miterlimit="10" d="M559.4,467.2
		c0,17.3,0,6.1,0,7.7"/>
	<polygon clip-path="url(#SVGID_2_)" fill-rule="evenodd" clip-rule="evenodd" fill="#4C4C4C" points="559.4,490.3 564.8,474.1 
		554,474.1 	"/>
	<path clip-path="url(#SVGID_2_)" fill="none" stroke="#FFFFFF" stroke-width="1.4" stroke-miterlimit="10" d="M507,67.9
		c0,202.4,50.7,75.2,53.7,252.6"/>
	<polygon clip-path="url(#SVGID_2_)" fill-rule="evenodd" clip-rule="evenodd" fill="#FFFFFF" points="560.9,337.6 566.1,321.4 
		555.3,321.5 	"/>
	<path clip-path="url(#SVGID_2_)" fill="none" stroke="#4C4C4C" stroke-width="1.4" stroke-miterlimit="10" d="M505.6,66.5
		c0,202.3,50.7,75.2,53.7,252.5"/>
	<polygon clip-path="url(#SVGID_2_)" fill-rule="evenodd" clip-rule="evenodd" fill="#4C4C4C" points="559.4,336.2 564.7,320 
		553.9,320.1 	"/>
	<path clip-path="url(#SVGID_2_)" fill="none" stroke="#FFFFFF" stroke-width="1.4" stroke-miterlimit="10" d="M560.8,545.6
		c0,31.9-34.399,17-48.2,28.9"/>
	<polygon clip-path="url(#SVGID_2_)" fill-rule="evenodd" clip-rule="evenodd" fill="#FFFFFF" points="506.9,588.1 518.3,575.5 
		508.5,571.2 	"/>
	<path clip-path="url(#SVGID_2_)" fill="none" stroke="#4C4C4C" stroke-width="1.4" stroke-miterlimit="10" d="M559.4,544.2
		c0,31.899-34.4,17-48.301,28.899"/>
	<polygon clip-path="url(#SVGID_2_)" fill-rule="evenodd" clip-rule="evenodd" fill="#4C4C4C" points="505.5,586.7 516.9,574.1 
		507.1,569.7 	"/>
	<polygon clip-path="url(#SVGID_2_)" points="268.4,611.009 269.348,609.925 273.801,613.782 269.348,617.64 268.4,616.556 
		271.027,614.456 269.221,614.524 263.195,614.524 263.195,613.04 269.221,613.04 271.027,613.099 	"/>
	<polygon clip-path="url(#SVGID_2_)" points="294.836,619.3 286.819,619.3 286.819,617.718 290.1,617.718 290.1,608.401 
		287.043,610.062 286.418,608.616 290.481,606.478 291.985,606.478 291.985,617.718 294.836,617.718 	"/>
	<polygon clip-path="url(#SVGID_2_)" points="576.7,611.009 577.647,609.925 582.101,613.782 577.647,617.64 576.7,616.556 
		579.327,614.456 577.521,614.524 571.495,614.524 571.495,613.04 577.521,613.04 579.327,613.099 	"/>
	<path clip-path="url(#SVGID_2_)" d="M603.244,619.3h-8.408v-1.523l3.301-3.281c0.54-0.533,0.979-0.996,1.318-1.387
		c0.338-0.391,0.602-0.747,0.791-1.069c0.188-0.322,0.315-0.626,0.381-0.913c0.064-0.286,0.098-0.596,0.098-0.928
		c0-0.313-0.043-0.61-0.127-0.894c-0.085-0.283-0.215-0.532-0.391-0.747s-0.404-0.384-0.684-0.508
		c-0.28-0.123-0.615-0.186-1.006-0.186c-0.541,0-1.032,0.121-1.475,0.361c-0.443,0.241-0.85,0.554-1.221,0.938l-0.938-1.123
		c0.481-0.508,1.036-0.914,1.665-1.221c0.628-0.306,1.358-0.459,2.192-0.459c0.566,0,1.082,0.085,1.548,0.254
		c0.465,0.17,0.867,0.414,1.206,0.732c0.338,0.319,0.601,0.71,0.786,1.172c0.186,0.463,0.278,0.983,0.278,1.563
		c0,0.488-0.065,0.941-0.195,1.357c-0.131,0.417-0.327,0.832-0.591,1.245c-0.264,0.414-0.596,0.842-0.996,1.284
		c-0.4,0.443-0.874,0.928-1.421,1.455l-2.314,2.256h6.201V619.3z"/>
	<path clip-path="url(#SVGID_2_)" fill-rule="evenodd" clip-rule="evenodd" fill="#FFFFFF" d="M197.2,586.7
		c33.9,0,59.8,11.6,59.8,26.899c0,15.301-25.9,27-59.8,27c-33.8,0-59.7-11.699-59.7-27C137.5,598.3,163.4,586.7,197.2,586.7z"/>
	
		<path clip-path="url(#SVGID_2_)" fill="none" stroke="#4C4C4C" stroke-width="1.415" stroke-linejoin="round" stroke-miterlimit="10" d="
		M197.2,586.7c33.9,0,59.8,11.6,59.8,26.899c0,15.301-25.9,27-59.8,27c-33.8,0-59.7-11.699-59.7-27
		C137.5,598.3,163.4,586.7,197.2,586.7z"/>
	
		<path clip-path="url(#SVGID_2_)" fill="none" stroke="#4C4C4C" stroke-width="1.415" stroke-linejoin="round" stroke-miterlimit="10" d="
		M137.5,586.7L137.5,586.7z"/>
	
		<path clip-path="url(#SVGID_2_)" fill="none" stroke="#4C4C4C" stroke-width="1.415" stroke-linejoin="round" stroke-miterlimit="10" d="
		M257,640.6L257,640.6z"/>
	<path clip-path="url(#SVGID_2_)" d="M168.542,615.322c0,0.872-0.122,1.634-0.366,2.285c-0.244,0.65-0.581,1.191-1.011,1.621
		s-0.938,0.752-1.523,0.967s-1.221,0.322-1.904,0.322c-0.313,0-0.624-0.017-0.933-0.049c-0.31-0.033-0.624-0.088-0.942-0.166v4.102
		h-1.699v-13.809h1.514l0.107,1.641c0.488-0.671,1.009-1.142,1.563-1.411c0.553-0.271,1.152-0.405,1.797-0.405
		c0.56,0,1.051,0.117,1.475,0.352c0.423,0.234,0.778,0.564,1.064,0.991c0.286,0.426,0.501,0.94,0.645,1.543
		C168.47,613.907,168.542,614.58,168.542,615.322z M166.803,615.4c0-0.515-0.038-0.986-0.112-1.416
		c-0.075-0.43-0.194-0.798-0.356-1.104c-0.163-0.307-0.371-0.546-0.625-0.718c-0.254-0.173-0.557-0.259-0.908-0.259
		c-0.215,0-0.433,0.034-0.654,0.103c-0.222,0.068-0.451,0.182-0.688,0.342c-0.238,0.159-0.488,0.371-0.752,0.635
		s-0.545,0.591-0.845,0.981v4.756c0.313,0.13,0.641,0.232,0.986,0.308c0.345,0.074,0.684,0.112,1.016,0.112
		c0.918,0,1.637-0.312,2.158-0.933C166.542,617.586,166.803,616.65,166.803,615.4z M171.543,610.596h1.553l0.049,1.807
		c0.579-0.697,1.15-1.201,1.714-1.514c0.563-0.313,1.131-0.469,1.704-0.469c1.016,0,1.785,0.328,2.31,0.986
		c0.524,0.657,0.767,1.634,0.728,2.93h-1.719c0.02-0.859-0.106-1.483-0.376-1.87c-0.271-0.388-0.666-0.581-1.187-0.581
		c-0.228,0-0.458,0.04-0.688,0.122c-0.231,0.081-0.469,0.211-0.713,0.391c-0.244,0.179-0.503,0.408-0.776,0.688
		c-0.273,0.279-0.566,0.618-0.879,1.016v6.299h-1.719V610.596z M185.562,612.002h-2.9v-1.406h4.619v8.389h2.92v1.416h-7.861v-1.416
		h3.223V612.002z M186.158,606.484c0.189,0,0.365,0.034,0.527,0.103s0.304,0.164,0.425,0.288c0.121,0.123,0.215,0.265,0.283,0.425
		c0.068,0.159,0.103,0.333,0.103,0.522c0,0.182-0.034,0.354-0.103,0.518c-0.068,0.162-0.163,0.306-0.283,0.43
		c-0.121,0.123-0.262,0.22-0.425,0.288s-0.338,0.103-0.527,0.103s-0.365-0.034-0.527-0.103s-0.304-0.165-0.425-0.288
		c-0.121-0.124-0.215-0.268-0.283-0.43c-0.068-0.163-0.103-0.336-0.103-0.518c0-0.189,0.034-0.363,0.103-0.522
		c0.068-0.16,0.163-0.302,0.283-0.425c0.121-0.124,0.262-0.22,0.425-0.288S185.969,606.484,186.158,606.484z M193.202,610.596h1.514
		l0.068,1.582c0.287-0.339,0.563-0.62,0.83-0.845s0.529-0.405,0.786-0.542s0.519-0.233,0.786-0.288
		c0.267-0.056,0.543-0.083,0.83-0.083c1.009,0,1.772,0.298,2.29,0.894s0.776,1.492,0.776,2.69v6.396h-1.699v-6.26
		c0-0.769-0.143-1.337-0.43-1.704c-0.287-0.368-0.713-0.552-1.279-0.552c-0.208,0-0.412,0.03-0.61,0.093
		c-0.199,0.062-0.405,0.169-0.62,0.322c-0.215,0.152-0.448,0.359-0.698,0.62c-0.25,0.26-0.532,0.586-0.845,0.977v6.504h-1.699
		V610.596z M212.183,620.264c-0.384,0.098-0.781,0.167-1.191,0.21c-0.41,0.042-0.827,0.063-1.25,0.063
		c-1.23,0-2.148-0.278-2.754-0.835s-0.908-1.411-0.908-2.563v-5.117h-2.744v-1.426h2.744V607.9l1.699-0.439v3.135h4.404v1.426
		h-4.404v4.98c0,0.703,0.187,1.229,0.562,1.577c0.374,0.348,0.926,0.522,1.655,0.522c0.313,0,0.654-0.024,1.025-0.073
		s0.758-0.126,1.162-0.229V620.264z"/>
	<path clip-path="url(#SVGID_2_)" d="M234.106,617.725c0,0.345-0.059,0.654-0.176,0.928s-0.277,0.516-0.479,0.728
		c-0.202,0.211-0.436,0.392-0.703,0.542c-0.267,0.149-0.552,0.273-0.854,0.371s-0.614,0.169-0.933,0.215
		c-0.319,0.045-0.631,0.068-0.938,0.068c-0.664,0-1.274-0.029-1.831-0.088s-1.102-0.153-1.636-0.283v-1.563
		c0.573,0.162,1.143,0.286,1.709,0.371c0.566,0.084,1.129,0.127,1.689,0.127c0.814,0,1.416-0.111,1.807-0.332
		c0.391-0.222,0.586-0.537,0.586-0.947c0-0.176-0.031-0.334-0.093-0.474c-0.062-0.141-0.174-0.273-0.337-0.4
		s-0.415-0.259-0.757-0.396s-0.809-0.293-1.401-0.469c-0.443-0.131-0.851-0.278-1.226-0.444s-0.698-0.363-0.972-0.591
		c-0.273-0.229-0.488-0.495-0.645-0.801c-0.156-0.307-0.234-0.668-0.234-1.084c0-0.273,0.063-0.573,0.19-0.898
		c0.127-0.326,0.343-0.629,0.649-0.908c0.306-0.28,0.719-0.513,1.24-0.698s1.172-0.278,1.953-0.278c0.384,0,0.811,0.021,1.279,0.063
		c0.469,0.042,0.957,0.115,1.465,0.22v1.514c-0.534-0.131-1.04-0.227-1.519-0.288c-0.479-0.063-0.894-0.093-1.245-0.093
		c-0.423,0-0.78,0.032-1.069,0.098c-0.29,0.064-0.524,0.154-0.703,0.269c-0.179,0.113-0.308,0.247-0.386,0.4
		c-0.078,0.152-0.117,0.317-0.117,0.493s0.034,0.335,0.103,0.479c0.068,0.143,0.195,0.281,0.381,0.415
		c0.186,0.133,0.444,0.267,0.776,0.4c0.332,0.133,0.765,0.278,1.299,0.435c0.58,0.169,1.068,0.347,1.465,0.532
		s0.719,0.392,0.967,0.62c0.248,0.228,0.425,0.484,0.532,0.771C234.052,617.034,234.106,617.359,234.106,617.725z"/>
	
		<path clip-path="url(#SVGID_2_)" fill="none" stroke="#4C4C4C" stroke-width="1.415" stroke-linejoin="round" stroke-miterlimit="10" d="
		M75.9,126.8c-5,0-10,7.1-10,14.3V317c0,7.1-5,14.3-9.9,14.3c4.9,0,9.9,7.101,9.9,14.3v175.9c0,7.1,5,14.2,10,14.2"/>
	
		<path clip-path="url(#SVGID_2_)" fill="none" stroke="#4C4C4C" stroke-width="1.415" stroke-linejoin="round" stroke-miterlimit="10" d="
		M56,126.8L56,126.8z"/>
	
		<path clip-path="url(#SVGID_2_)" fill="none" stroke="#4C4C4C" stroke-width="1.415" stroke-linejoin="round" stroke-miterlimit="10" d="
		M75.9,535.7L75.9,535.7z"/>
	<path clip-path="url(#SVGID_2_)" d="M16.426,334.524c0,0.345-0.059,0.654-0.176,0.928s-0.277,0.516-0.479,0.728
		c-0.202,0.212-0.437,0.393-0.703,0.542c-0.267,0.149-0.552,0.273-0.854,0.371s-0.614,0.169-0.933,0.215
		c-0.319,0.045-0.632,0.068-0.938,0.068c-0.664,0-1.274-0.029-1.831-0.088s-1.102-0.153-1.636-0.283v-1.563
		c0.573,0.163,1.143,0.286,1.709,0.371s1.129,0.127,1.689,0.127c0.813,0,1.416-0.11,1.807-0.332s0.586-0.537,0.586-0.947
		c0-0.176-0.031-0.334-0.093-0.474c-0.062-0.14-0.174-0.273-0.337-0.4c-0.163-0.127-0.415-0.259-0.757-0.396
		s-0.809-0.293-1.401-0.469c-0.443-0.13-0.852-0.278-1.226-0.444c-0.375-0.166-0.698-0.363-0.972-0.591s-0.488-0.495-0.645-0.801
		s-0.234-0.667-0.234-1.084c0-0.273,0.063-0.573,0.19-0.898s0.343-0.628,0.649-0.908c0.306-0.28,0.719-0.513,1.24-0.698
		c0.521-0.186,1.172-0.278,1.953-0.278c0.384,0,0.811,0.021,1.279,0.063s0.957,0.115,1.465,0.22v1.514
		c-0.534-0.13-1.04-0.227-1.519-0.288s-0.894-0.093-1.245-0.093c-0.423,0-0.78,0.032-1.069,0.098
		c-0.29,0.065-0.524,0.154-0.703,0.269c-0.179,0.114-0.308,0.247-0.386,0.4s-0.117,0.317-0.117,0.493s0.034,0.335,0.103,0.479
		s0.195,0.281,0.381,0.415s0.444,0.267,0.776,0.4s0.765,0.278,1.299,0.435c0.579,0.169,1.067,0.347,1.465,0.532
		c0.397,0.186,0.719,0.393,0.967,0.62c0.247,0.228,0.425,0.485,0.532,0.771S16.426,334.16,16.426,334.524z M28.256,332.62h-3.838
		v3.984h-1.68v-3.984H18.9v-1.484h3.838v-3.955h1.68v3.955h3.838V332.62z M39.335,332.62h-3.838v3.984h-1.68v-3.984H29.98v-1.484
		h3.838v-3.955h1.68v3.955h3.838V332.62z"/>
</g>
</svg>
