<?xml version="1.0" encoding="UTF-8" standalone="no"?>
<!-- Created with Inkscape (http://www.inkscape.org/) -->

<svg
   xmlns:dc="http://purl.org/dc/elements/1.1/"
   xmlns:cc="http://creativecommons.org/ns#"
   xmlns:rdf="http://www.w3.org/1999/02/22-rdf-syntax-ns#"
   xmlns:svg="http://www.w3.org/2000/svg"
   xmlns="http://www.w3.org/2000/svg"
   xmlns:sodipodi="http://sodipodi.sourceforge.net/DTD/sodipodi-0.dtd"
   xmlns:inkscape="http://www.inkscape.org/namespaces/inkscape"
   id="svg4676"
   version="1.1"
   inkscape:version="0.91 r13725"
   width="120"
   height="80"
   viewBox="0 0 120 80"
   sodipodi:docname="logo.svg">
  <metadata
     id="metadata4682">
    <rdf:RDF>
      <cc:Work
         rdf:about="">
        <dc:format>image/svg+xml</dc:format>
        <dc:type
           rdf:resource="http://purl.org/dc/dcmitype/StillImage" />
        <dc:title></dc:title>
      </cc:Work>
    </rdf:RDF>
  </metadata>
  <defs
     id="defs4680" />
  <sodipodi:namedview
     pagecolor="#ffffff"
     bordercolor="#666666"
     borderopacity="1"
     objecttolerance="10"
     gridtolerance="10"
     guidetolerance="10"
     inkscape:pageopacity="0"
     inkscape:pageshadow="2"
     inkscape:window-width="1920"
     inkscape:window-height="1030"
     id="namedview4678"
     showgrid="false"
     inkscape:zoom="2.3117188"
     inkscape:cx="217.38658"
     inkscape:cy="-2.984657"
     inkscape:window-x="0"
     inkscape:window-y="27"
     inkscape:window-maximized="1"
     inkscape:current-layer="svg4676" />
  <g
     id="g5268"
     transform="matrix(0.15120857,0,0,0.15120857,2.1825941,61.436362)">
    <path
       style="fill:#f6cd89"
       d="m 424.9552,107.51629 c -0.72028,-0.86789 -3.08121,-8.5953 -5.2465,-17.17201 -2.16528,-8.57672 -4.46255,-16.22742 -5.10502,-17.00155 -0.85238,-1.02705 -5.30433,-0.45993 -16.46906,2.09793 -23.78915,5.45014 -39.6031,7.4693 -64.77633,8.27079 C 270.83775,85.70203 215.8101,71.22901 169.7087,40.66944 150.56795,27.98146 126.08491,3.78091 114.31536,-14.08475 c -45.327022,-68.80449 -42.271722,-153.27866 8.30931,-229.7395 9.46097,-14.30169 10.19711,-15.86579 9.22775,-19.60665 -1.30817,-5.04839 -0.56323,-5.80339 7.8894,-7.99596 3.72207,-0.9655 6.9796,-2.50884 7.23895,-3.42966 1.02145,-3.62675 30.58068,-31.20899 44.92682,-41.92202 46.50276,-34.72605 99.21936,-56.59739 159.67611,-66.24724 19.87059,-3.17166 73.21918,-3.16595 92.5,0.01 31.38555,5.16968 56.8788,13.24827 81.875,25.94547 85.17772,43.26733 126.31704,125.62054 107.98449,216.16471 -4.6191,22.81363 -18.00041,55.46501 -31.2491,76.25 -23.77731,37.30268 -61.0322,73.77208 -98.61039,96.53126 -17.93317,10.8612 -33.33603,18.90785 -38.89717,20.32036 l -5.14718,1.30738 4.14483,16.50841 c 2.34515,9.34047 5.31114,18.08592 6.83096,20.1416 5.03294,6.8074 3.83648,7.66837 -18.81181,13.53703 -22.3973,5.80362 -25.27185,6.20723 -27.24813,3.82597 z m 8.40189,-204.67201 c -6.3375,-7.28638 -7.39839,-8.26148 -7.39839,-6.80018 0,0.82609 12.61853,14.30018 13.39217,14.30018 0.29123,0 -2.40597,-3.375 -5.99378,-7.5 z M 320.4442,-96.8369 c -1.34436,-1.34436 -2.05806,0.53844 -1.11435,2.93976 0.88525,2.25259 0.95212,2.25649 1.38992,0.0811 0.25296,-1.25694 0.12896,-2.61631 -0.27557,-3.02084 z m 102.18423,-15.24977 c -1.91096,-3.39953 -3.67239,-5.98305 -3.91428,-5.74117 -0.49705,0.49705 3.15099,7.975 5.05384,10.35962 2.68835,3.36898 2.1704,1.26981 -1.13956,-4.61845 z m 126.86551,-102.73417 c -6.11752,-11.5376 -19.07337,-26.26322 -28.33662,-32.20743 -8.57859,-5.50487 -9.39899,-4.80464 -1.36188,1.16237 3.73355,2.7719 9.1192,7.28484 11.96813,10.02875 6.0648,5.84124 18.57267,24.02276 20.67486,30.0531 0.80262,2.30241 1.68576,3.50685 1.96254,2.67654 0.27677,-0.83031 -1.93139,-6.10131 -4.90703,-11.71333 z M 387.32593,-235.0385 c -1.63243,-1.63242 -1.85949,0.1767 -0.46665,3.71804 0.8686,2.20845 0.91712,2.20737 1.36722,-0.0305 0.25665,-1.27615 -0.1486,-2.93553 -0.90057,-3.6875 z M 207.9442,-289.3369 c -1.34436,-1.34436 -2.05806,0.53844 -1.11435,2.93976 0.88525,2.25259 0.95212,2.25649 1.38992,0.0811 0.25296,-1.25694 0.12896,-2.61631 -0.27557,-3.02084 z m 121.20965,-1.34779 c -1.45646,-4.58893 -8.12206,-12.61908 -12.233,-14.7373 l -4.08715,-2.10595 5.135,5.30289 c 2.82427,2.91658 6.48052,7.44573 8.125,10.06475 3.14935,5.01568 4.37064,5.60458 3.06015,1.47561 z"
       id="path5240"
       inkscape:connector-curvature="0" />
    <path
       style="fill:#9b4d2e"
       d="M 296.5837,79.99039 C 260.57107,76.79358 229.0939,68.33508 199.0837,53.7903 140.7044,25.49614 102.73075,-21.05277 88.932638,-81.23517 c -2.58946,-11.29434 -3.68419,-50.17675 -1.80937,-64.26519 4.2522,-31.95334 17.414842,-66.08946 37.023202,-96.01636 6.77196,-10.33558 8.4132,-12.12247 10.25012,-11.15978 1.47782,0.77449 5.83556,0.20161 13.43711,-1.76645 13.7181,-3.55167 18.4816,-3.67689 25.12367,-0.66044 5.76817,2.6196 9.65356,7.40533 12.46065,15.34813 1.04868,2.9673 9.231,34.08259 18.18291,69.14509 8.95191,35.0625 17.08206,66.52397 18.06699,69.91437 2.85783,9.83744 2.35823,14.97734 -1.93055,19.862 -3.74019,4.25985 -4.96908,4.77235 -26.03339,10.85721 -5.02135,1.45053 -9.38058,3.30762 -9.68716,4.12687 -0.30659,0.81925 0.43321,5.1458 1.644,9.61455 1.77035,6.5339 2.73137,8.20085 4.90748,8.51236 3.63012,0.51964 135.70149,-33.24316 136.76405,-34.96244 1.15024,-1.86112 -2.33725,-16.27917 -4.45181,-18.4048 -1.46494,-1.4726 -4.44836,-1.03206 -20.06062,2.96219 -13.24245,3.38796 -19.91228,4.51481 -23.99762,4.05434 -9.7734,-1.1016 -10.73553,-2.91373 -19.1011,-35.97555 -8.12055,-32.09344 -9.98892,-44.46203 -9.99797,-66.1861 -0.0131,-31.53947 4.3093,-55.7207 12.81157,-71.67259 4.87404,-9.14464 13.36612,-18.73241 18.46077,-20.84269 5.30917,-2.19912 6.81393,-0.47694 5.07023,5.80291 -4.37205,15.74584 1.58767,31.18825 14.4687,37.49037 5.62899,2.754 7.8275,3.18363 13.0974,2.5595 22.10883,-2.61848 30.57718,-24.4193 19.18069,-49.37857 -10.40744,-22.79318 -36.06092,-30.22982 -60.77962,-17.61928 -7.19377,3.66998 -16.8363,12.92615 -22.44295,21.54366 -7.77214,11.9459 -14.9061,36.77267 -16.86145,58.67919 -0.47558,5.32812 -1.25839,9.6875 -1.73958,9.6875 -0.48119,0 -4.98076,-16.17188 -9.99905,-35.9375 -5.0183,-19.76563 -9.81499,-36.68539 -10.65931,-37.59947 -1.2657,-1.37026 -6.19358,-0.20347 -28.07659,6.64778 -14.59781,4.57035 -26.90796,7.93427 -27.3559,7.47539 -0.44794,-0.45889 3.79248,-5.21483 9.42314,-10.56875 44.83446,-42.63092 103.79959,-73.20433 166.01242,-86.07743 34.28642,-7.09456 75.21853,-8.86867 107.1325,-4.64342 91.0606,12.05595 161.51974,63.2372 187.02299,135.85277 7.78834,22.17581 9.60054,34.02294 9.53744,62.35063 -0.0635,28.518 -1.72823,39.38507 -9.81508,64.07203 C 602.734,-52.84795 548.243,7.31726 478.25949,42.73711 c -6.84531,3.46453 -12.80855,5.93662 -13.25164,5.49353 -1.00555,-1.00555 -30.11885,-114.91006 -29.54067,-115.57658 0.23176,-0.26717 4.23404,1.50545 8.89395,3.93917 13.36852,6.98192 24.26142,9.89672 37.22257,9.96028 40.45227,0.19842 75.32343,-29.66743 85.71734,-73.41368 3.7916,-15.95818 2.94843,-43.26428 -1.87201,-60.625 -12.95126,-46.64377 -44.4561,-75.19947 -85.09533,-77.12964 -11.2606,-0.53483 -15.73395,-0.1782 -24.70821,1.96976 -21.99636,5.2648 -40.71726,18.08368 -52.43237,35.90235 -2.89555,4.40414 -5.64524,8.00753 -6.11042,8.00753 -0.46517,0 -1.20682,-1.92459 -1.64811,-4.27685 -0.44129,-2.35228 -1.65069,-7.13353 -2.68754,-10.625 -2.32181,-7.81837 -1.91646,-7.78748 -24.98711,-1.90448 -22.05791,5.62474 -29.30124,7.95466 -29.30124,9.42516 0,1.011 16.89589,67.68494 62.56559,246.8941 6.15143,24.13837 11.18441,44.7838 11.18441,45.87874 0,2.26354 -3.52707,3.43028 -21.66077,7.16524 -28.91953,5.9565 -67.68508,8.50142 -93.96423,6.16865 z m 156.875,-167.66255 c -21.51623,-8.46824 -39.05042,-42.18141 -40.86053,-78.56301 -0.77438,-15.56438 1.35257,-26.50774 7.33277,-37.72774 4.65096,-8.7261 10.26956,-13.96534 19.72073,-18.3892 9.5824,-4.4853 25.33168,-4.66216 34.02038,-0.38205 20.02843,9.86614 36.26353,42.67211 38.17198,77.13346 2.08176,37.59054 -12.7384,59.09684 -41.51033,60.2378 -7.96581,0.31589 -11.3985,-0.15385 -16.875,-2.30926 z"
       id="path5232"
       inkscape:connector-curvature="0" />
  </g>
</svg>
