<?xml version="1.0" encoding="UTF-8" standalone="no"?>
<!-- Created with Inkscape (http://www.inkscape.org/) -->
<svg xmlns:svg="http://www.w3.org/2000/svg" xmlns="http://www.w3.org/2000/svg" version="1.0" width="6.4in" height="1.4in" viewBox="169 913 7638 1650">
  <path d="M 7795,1417 L 7795,1181 M 5905,1417 L 5905,1181 M 4015,1417 L 4015,1181 M 2125,1417 L 2125,1181 M 236,1417 L 236,1181" style="stroke:#000000;stroke-width:16"/>
  <polyline style="fill:#ff3232;stroke:#000000;stroke-width:16" points="236,1889 236,2220 472,2220 472,1889"/>
  <polyline style="fill:#fff2b2;stroke:#000000;stroke-width:16" points="472,1889 472,2220 2362,2220 2362,1889"/>
  <polyline style="fill:#9cd19c;stroke:#000000;stroke-width:16" points="2362,1889 2362,2220 7795,2220 7795,1889"/>
  <polyline style="fill:#ff8080;stroke:#000000;stroke-width:16" points="236,1417 472,1417 472,1889 236,1889 236,1417"/>
  <path d="M 1889,1417 L 2125,1417 L 2125,1889 L 1889,1889 L 1889,1417 M 2125,1417 L 2362,1417 L 2362,1889 L 2125,1889 L 2125,1417 M 1653,1417 L 1889,1417 L 1889,1889 L 1653,1889 L 1653,1417 M 1417,1417 L 1653,1417 L 1653,1889 L 1417,1889 L 1417,1417 M 1181,1417 L 1417,1417 L 1417,1889 L 1181,1889 L 1181,1417 M 944,1417 L 1181,1417 L 1181,1889 L 944,1889 L 944,1417 M 708,1417 L 944,1417 L 944,1889 L 708,1889 L 708,1417 M 472,1417 L 708,1417 L 708,1889 L 472,1889 L 472,1417" style="fill:#ffd600;stroke:#000000;stroke-width:16"/>
  <path d="M 2362,1417 L 2598,1417 L 2598,1889 L 2362,1889 L 2362,1417 M 2598,1417 L 2834,1417 L 2834,1889 L 2598,1889 L 2598,1417 M 2834,1417 L 3070,1417 L 3070,1889 L 2834,1889 L 2834,1417 M 3070,1417 L 3307,1417 L 3307,1889 L 3070,1889 L 3070,1417 M 3307,1417 L 3543,1417 L 3543,1889 L 3307,1889 L 3307,1417 M 3543,1417 L 3779,1417 L 3779,1889 L 3543,1889 L 3543,1417 M 3779,1417 L 4015,1417 L 4015,1889 L 3779,1889 L 3779,1417 M 4015,1417 L 4251,1417 L 4251,1889 L 4015,1889 L 4015,1417 M 4251,1417 L 4488,1417 L 4488,1889 L 4251,1889 L 4251,1417 M 4488,1417 L 4724,1417 L 4724,1889 L 4488,1889 L 4488,1417 M 4724,1417 L 4960,1417 L 4960,1889 L 4724,1889 L 4724,1417 M 4960,1417 L 5196,1417 L 5196,1889 L 4960,1889 L 4960,1417 M 5196,1417 L 5433,1417 L 5433,1889 L 5196,1889 L 5196,1417 M 5433,1417 L 5669,1417 L 5669,1889 L 5433,1889 L 5433,1417 M 5669,1417 L 5905,1417 L 5905,1889 L 5669,1889 L 5669,1417 M 5905,1417 L 6141,1417 L 6141,1889 L 5905,1889 L 5905,1417 M 6141,1417 L 6377,1417 L 6377,1889 L 6141,1889 L 6141,1417 M 6377,1417 L 6614,1417 L 6614,1889 L 6377,1889 L 6377,1417 M 6614,1417 L 6850,1417 L 6850,1889 L 6614,1889 L 6614,1417 M 6850,1417 L 7086,1417 L 7086,1889 L 6850,1889 L 6850,1417 M 7086,1417 L 7322,1417 L 7322,1889 L 7086,1889 L 7086,1417 M 7322,1417 L 7559,1417 L 7559,1889 L 7322,1889 L 7322,1417 M 7559,1417 L 7795,1417 L 7795,1889 L 7559,1889 L 7559,1417" style="fill:#34d134;stroke:#000000;stroke-width:16"/>
  <text style="font-size:152px;text-anchor:start;stroke:#000000;stroke-width:0.025in;font-family:Helvetica">
<tspan x="290" y="1086">Bit</tspan>
  </text>
  <text style="font-size:152px;text-anchor:middle;stroke:#000000;stroke-width:0.025in;font-family:Helvetica"><tspan x="354" y="1322">31</tspan><tspan x="2008" y="1322">24</tspan><tspan x="2244" y="1322">23</tspan><tspan x="3897" y="1322">16</tspan><tspan x="4134" y="1322">15</tspan><tspan x="5787" y="1327">8</tspan><tspan x="6023" y="1327">7</tspan><tspan x="7677" y="1327">0</tspan>
  </text>
  <text style="font-size:202px;text-anchor:middle;stroke:#000000;stroke-width:0.025in;font-family:Helvetica"><tspan y="2117" x="1417">Charakteristik</tspan><tspan x="5079" y="2117">Mantisse</tspan>
  </text>
  <text style="font-size:202px;text-anchor:start;stroke:#000000;stroke-width:0.025in;font-family:Helvetica"><tspan x="280" y="2457">Vorzeichen</tspan>
  </text>
  <text style="font-size:177px;text-anchor:middle;stroke:#000000;stroke-width:0.025in;font-family:Helvetica"><tspan x="354" y="1739">V</tspan><tspan x="590" y="1739">E</tspan><tspan x="826" y="1739">E</tspan><tspan x="1063" y="1739">E</tspan><tspan x="1299" y="1739">E</tspan><tspan x="1535" y="1739">E</tspan><tspan x="1771" y="1739">E</tspan><tspan x="2008" y="1739">E</tspan><tspan x="2244" y="1739">E</tspan><tspan x="2480" y="1739">M</tspan><tspan x="2716" y="1739">M</tspan><tspan x="2952" y="1739">M</tspan><tspan x="3189" y="1739">M</tspan><tspan x="3425" y="1739">M</tspan><tspan x="3661" y="1739">M</tspan><tspan x="3897" y="1739">M</tspan><tspan x="4134" y="1739">M</tspan><tspan x="4370" y="1739">M</tspan><tspan x="4606" y="1739">M</tspan><tspan x="4842" y="1739">M</tspan><tspan x="5079" y="1739">M</tspan><tspan x="5315" y="1739">M</tspan><tspan x="5551" y="1739">M</tspan><tspan x="5787" y="1739">M</tspan><tspan x="6023" y="1739">M</tspan><tspan x="6260" y="1739">M</tspan><tspan x="6496" y="1739">M</tspan><tspan x="6732" y="1739">M</tspan><tspan x="6968" y="1739">M</tspan><tspan x="7205" y="1739">M</tspan><tspan x="7441" y="1739">M</tspan><tspan x="7677" y="1739">M</tspan>
  </text>
</svg>